<svg width="147" height="49" viewBox="0 0 147 49" fill="none" xmlns="http://www.w3.org/2000/svg">
<g clipPath="url(#clip0_4361_2723)">
<path d="M41.375 11.8937C41.375 9.20145 43.3534 7.43042 45.8145 7.43042C47.3544 7.43042 48.4149 8.10348 49.1662 9.03489L48.313 9.57878C47.7691 8.87852 46.8513 8.38902 45.8145 8.38902C43.9245 8.38902 42.49 9.82352 42.49 11.8937C42.49 13.9639 43.9245 15.3984 45.8145 15.3984C46.8479 15.3984 47.7045 14.9055 48.143 14.467V12.7197H45.1686V11.7611H49.207V14.8647C48.4047 15.7689 47.2286 16.3672 45.8179 16.3672C43.3602 16.3672 41.3784 14.5689 41.3784 11.8903L41.375 11.8937Z" fill="white"/>
<path d="M58.017 16.2043L55.8313 12.7744H54.0976V16.2043H53.0234V7.57349H56.4907C58.068 7.57349 59.2068 8.58308 59.2068 10.1739C59.2068 11.7648 58.1326 12.5807 56.9564 12.6826L59.2849 16.2009H58.017V16.2043ZM58.0952 10.1739C58.0952 9.19155 57.3847 8.53209 56.3615 8.53209H54.0976V11.8328H56.3615C57.3847 11.8328 58.0952 11.1461 58.0952 10.1773V10.1739Z" fill="white"/>
<path d="M66.8915 7.57349H65.559L62.0781 16.2043H63.3087L64.0701 14.2769L64.393 13.3319L66.2185 8.67486L68.0575 13.3319L68.3668 14.2769L69.1283 16.2043H70.3588L66.8915 7.57349Z" fill="white"/>
<path d="M75.4418 16.2043L71.9609 7.57349H73.1915L76.1013 15.0247L79.0111 7.57349H80.2416L76.7743 16.2043H75.4418Z" fill="white"/>
<path d="M83.4375 16.2043V7.57349H84.5117V16.2043H83.4375Z" fill="white"/>
<path d="M90.7374 16.2043V8.53209H88.0078V7.57349H94.5549V8.53209H91.8116V16.2043H90.7374Z" fill="white"/>
<path d="M100.559 16.2043V12.5569L97.1562 7.5769H98.4106L101.089 11.5881L103.768 7.5769H105.022L101.633 12.5569V16.2043H100.559Z" fill="white"/>
<path d="M66.2145 14.4413L65.2891 15.3667L66.2145 16.2921L67.1399 15.3667L66.2145 14.4413Z" fill="white"/>
<path d="M19.5168 48.1293L17.2936 42.4015H5.42327L3.20013 48.1293C3.05056 48.4795 2.79901 48.6562 2.44548 48.6562H1.76562L11.7154 23.4062H12.0927L22.0424 48.6562H20.2714C19.9213 48.6562 19.6697 48.4795 19.5168 48.1293ZM16.9163 41.4599L11.3754 27.1387L5.79719 41.4599H16.9163Z" fill="white"/>
<path d="M22.4003 48.9013H20.2689C19.8202 48.9013 19.4803 48.6668 19.2899 48.2249V48.2181L17.1246 42.6466H5.58738L3.42543 48.2181C3.23167 48.6668 2.89514 48.9013 2.44304 48.9013H1.40625L11.5464 23.1619H12.2568L22.3969 48.9013H22.4003ZM19.7421 48.0379C19.8542 48.2997 20.0174 48.4152 20.2689 48.4152H21.6831L11.9237 23.6514H11.8795L2.1235 48.4118H2.44304C2.69798 48.4118 2.86115 48.2963 2.97333 48.0311L5.25425 42.1537H17.4611L19.7421 48.0345V48.0379ZM17.2708 41.7016H5.44121L11.3764 26.4626L17.2708 41.7016ZM6.15507 41.2155H16.5603L11.3764 27.8121L6.15507 41.2155Z" fill="white"/>
<path d="M44.3515 48.6562C44.0251 48.6562 43.7362 48.4931 43.4846 48.1667L37.4917 41.12C36.7642 40.2396 36.2543 39.5189 35.9654 38.9546C35.6765 38.3903 35.5303 37.7921 35.5303 37.1632C35.5303 36.5853 35.6799 36.0958 35.9824 35.6947C36.2849 35.2936 36.6623 34.9231 37.1144 34.5831C37.5665 34.2432 38.0492 33.9033 38.5659 33.5667C39.0826 33.2268 39.5653 32.8495 40.0174 32.4348C40.4695 32.0201 40.8468 31.5306 41.1493 30.9663C41.4519 30.402 41.6014 29.7153 41.6014 28.9131C41.6014 27.5058 41.1425 26.3942 40.2247 25.5784C39.3069 24.7626 38.0696 24.3547 36.5127 24.3547H31.8387V48.663H29.5781V23.4062H36.9274C39.1369 23.4062 40.9114 23.889 42.2405 24.8577C43.573 25.8265 44.2393 27.1115 44.2393 28.7194C44.2393 29.5726 44.0625 30.3034 43.7124 30.9051C43.3623 31.5068 42.9272 32.0235 42.4139 32.4518C41.8972 32.8801 41.3397 33.2438 40.738 33.5464C40.1363 33.8489 39.5755 34.148 39.0622 34.4506C38.5489 34.7531 38.1138 35.059 37.7636 35.3752C37.4135 35.6879 37.2367 36.072 37.2367 36.5241C37.2367 36.7519 37.2673 36.9694 37.3319 37.1836C37.3931 37.3978 37.5155 37.6425 37.6888 37.9178C37.8656 38.1932 38.1172 38.5263 38.4435 38.9172C38.7698 39.3082 39.1845 39.8045 39.6876 40.4061L46.8092 48.6596H44.3583L44.3515 48.6562Z" fill="white"/>
<path d="M47.3352 48.9013H44.354C43.9495 48.9013 43.5926 48.7042 43.2934 48.3167L37.3073 41.2767C36.5696 40.3861 36.0461 39.6417 35.7504 39.0638C35.4445 38.4655 35.2915 37.8264 35.2915 37.1636C35.2915 36.5347 35.4615 35.9908 35.7912 35.5489C36.1039 35.1308 36.5017 34.7399 36.9708 34.3897C37.4229 34.0498 37.9158 33.7031 38.4325 33.3632C38.9355 33.0334 39.4115 32.6595 39.8534 32.255C40.2817 31.8607 40.6454 31.3882 40.9343 30.8511C41.2165 30.3242 41.3592 29.6715 41.3592 28.9135C41.3592 27.5674 40.9343 26.534 40.0641 25.7589C39.1973 24.9873 38.0041 24.5964 36.5153 24.5964H32.086V48.9047H29.3359V23.1619H36.93C39.1837 23.1619 41.0193 23.665 42.3858 24.661C43.7795 25.6705 44.4832 27.0371 44.4832 28.7197C44.4832 29.6137 44.2928 30.3922 43.9223 31.0278C43.5586 31.6533 43.1031 32.1938 42.566 32.6391C42.0391 33.0776 41.4578 33.4549 40.8426 33.7609C40.2477 34.06 39.6868 34.3591 39.1803 34.6583C38.6806 34.9506 38.2557 35.2498 37.9192 35.5523C37.62 35.8208 37.4739 36.137 37.4739 36.5211C37.4739 36.7217 37.501 36.9222 37.5588 37.1126C37.6132 37.3029 37.7254 37.5307 37.8886 37.7856C38.0585 38.0508 38.3067 38.3805 38.6228 38.7578C38.9491 39.1488 39.3639 39.6451 39.867 40.2467L47.3352 48.9013ZM31.5965 24.1035H36.5153C38.1265 24.1035 39.4318 24.5352 40.3904 25.3918C41.3558 26.2518 41.8487 27.4348 41.8487 28.9101C41.8487 29.7497 41.6856 30.4806 41.3694 31.0788C41.0567 31.6669 40.659 32.1836 40.1899 32.6153C39.731 33.0368 39.2313 33.4243 38.7078 33.7711C38.1979 34.1076 37.7152 34.4441 37.2699 34.7807C36.8382 35.1036 36.4745 35.4605 36.1889 35.8446C35.9204 36.2016 35.7844 36.6469 35.7844 37.167C35.7844 37.7516 35.9204 38.3193 36.1923 38.8462C36.4711 39.3935 36.9742 40.1074 37.688 40.9674L43.6776 48.0141C43.8883 48.2895 44.1093 48.4186 44.3574 48.4186H46.2746L39.4998 40.5697C38.9933 39.9646 38.582 39.4683 38.2523 39.0774C37.9192 38.6831 37.6608 38.3363 37.4807 38.0542C37.2903 37.755 37.1645 37.4933 37.0931 37.2587C37.0251 37.0242 36.9878 36.7794 36.9878 36.5313C36.9878 36.0078 37.1917 35.5591 37.5962 35.1988C37.96 34.8758 38.4087 34.5563 38.9356 34.247C39.4522 33.9444 40.0199 33.6385 40.6284 33.336C41.2131 33.0436 41.7604 32.6867 42.2601 32.272C42.7496 31.8641 43.1711 31.3678 43.5042 30.7933C43.8339 30.2324 43.9971 29.5355 43.9971 28.7299C43.9971 27.19 43.375 25.9901 42.1003 25.0655C40.8188 24.1341 39.0783 23.6616 36.93 23.6616H29.8254V48.4254H31.5999V24.1035H31.5965Z" fill="white"/>
<path d="M68.1339 48.1293L65.9108 42.4015H54.0405L51.8173 48.1293C51.6677 48.4795 51.4162 48.6562 51.0627 48.6562H50.3828L60.3326 23.4062H60.7099L70.6596 48.6562H68.8886C68.5385 48.6562 68.2869 48.4795 68.1339 48.1293ZM65.5335 41.4599L59.9926 27.1387L54.4144 41.4599H65.5335Z" fill="white"/>
<path d="M71.0175 48.9013H68.8861C68.4374 48.9013 68.0975 48.6668 67.9071 48.2249V48.2181L65.7418 42.6466H54.2046L52.0426 48.2181C51.8489 48.6668 51.5123 48.9013 51.0602 48.9013H50.0234L60.1635 23.1619H60.874L71.0141 48.9013H71.0175ZM68.3626 48.0379C68.4748 48.2997 68.638 48.4152 68.8895 48.4152H70.3036L60.5477 23.6514H60.5035L50.7475 48.4152H51.067C51.322 48.4152 51.4851 48.2997 51.5973 48.0345L53.8782 42.1571H66.0851L68.366 48.0379H68.3626ZM65.8914 41.7016H54.0618L59.997 26.4626L65.8914 41.7016ZM54.7757 41.2155H65.1809L59.997 27.8121L54.7757 41.2155Z" fill="white"/>
<path d="M78.1875 48.6562V23.4062H78.5648L95.1466 44.023V27.7981H96.2786V48.6562H96.0916L79.3195 27.8525V48.6562H78.1875Z" fill="white"/>
<path d="M96.5259 48.9013H95.9752L95.9004 48.8096L79.5634 28.543V48.8979H77.9453V23.1619H78.683L94.9044 43.3299V23.1755H96.5225V48.9013H96.5259ZM78.4348 48.4118H79.0773V27.1594L96.0364 48.1977V28.0399H95.3939V44.7134L78.4518 23.6514H78.4348V48.4152V48.4118Z" fill="white"/>
<path d="M103.82 23.4062H105.741C106.142 23.4062 106.421 23.5694 106.57 23.8957L113.542 36.6703L120.552 23.8957C120.728 23.5694 121.004 23.4062 121.381 23.4062H122.098L114.147 37.7275V48.6562H111.887V38.03L103.82 23.4062Z" fill="white"/>
<path d="M114.389 48.9013H111.639V38.0916L103.406 23.1619H105.742C106.364 23.1619 106.653 23.4984 106.789 23.7873L113.543 36.1642L120.338 23.7805C120.556 23.376 120.916 23.1653 121.382 23.1653H122.514L114.389 37.7924V48.9013ZM112.129 48.4118H113.903V37.6633L121.684 23.648H121.382C121.096 23.648 120.899 23.7635 120.766 24.0083L113.54 37.1772L106.347 23.9947C106.238 23.7567 106.044 23.648 105.738 23.648H104.229L112.125 37.9624V48.4084L112.129 48.4118Z" fill="white"/>
<path d="M142.111 48.1293L139.887 42.4015H128.017L125.794 48.1293C125.644 48.4795 125.393 48.6562 125.039 48.6562H124.359L134.309 23.4062H134.686L144.636 48.6562H142.865C142.515 48.6562 142.263 48.4795 142.111 48.1293ZM139.51 41.4599L133.969 27.1387L128.391 41.4599H139.51Z" fill="white"/>
<path d="M144.994 48.9013H142.863C142.414 48.9013 142.074 48.6668 141.884 48.2249V48.2181L139.718 42.6466H128.181L126.019 48.2181C125.825 48.6668 125.489 48.9013 125.037 48.9013H124L134.14 23.1619H134.851L144.991 48.9013H144.994ZM142.336 48.0379C142.448 48.2997 142.611 48.4152 142.863 48.4152H144.277L134.521 23.6514H134.477L124.721 48.4152H125.04C125.295 48.4152 125.458 48.2997 125.57 48.0345L127.851 42.1571H140.058L142.339 48.0379H142.336ZM139.865 41.7016H128.035L133.97 26.4626L139.865 41.7016ZM128.749 41.2155H139.154L133.97 27.8121L128.749 41.2155Z" fill="white"/>
</g>
<defs>
<clipPath id="clip0_4361_2723">
<rect width="167.59" height="48.4032" fill="white" transform="translate(-10.5938 0.229248)"/>
</clipPath>
</defs>
</svg>
