<svg xmlns="http://www.w3.org/2000/svg" width="46" height="47" viewBox="0 0 46 47" fill="none">
  <g clipPath="url(#clip0_2624_47771)">
    <path d="M23.0177 46.2281C15.5894 46.2281 8.16114 46.2281 0.741866 46.2281C0.0649257 46.2281 0.0649257 46.2281 0.0649257 45.5423C0.0649257 44.5948 -0.0253331 44.694 0.895306 44.694C8.2875 44.694 15.6887 44.694 23.0809 44.694C23.5142 44.694 23.7308 44.4744 23.7308 44.0353C23.7308 32.1776 23.7308 20.3109 23.7308 8.45324C23.7308 8.02609 23.5142 7.8035 23.0809 7.78545C22.5303 7.7674 22.2505 7.5057 22.2505 6.95523C22.2505 5.0331 22.2505 3.10194 22.2505 1.17981C22.2505 0.593242 22.5213 0.331543 23.099 0.331543C24.5973 0.331543 26.0865 0.331543 27.5848 0.331543C33.4877 0.331543 39.3907 0.331543 45.2846 0.331543C45.9796 0.331543 45.9796 0.331543 45.9796 0.999327C45.9796 1.97393 46.0788 1.86564 45.1221 1.86564C38.2354 1.86564 31.3486 1.86564 24.4619 1.86564C24.0166 1.86564 23.794 2.08222 23.794 2.51538C23.794 3.56217 23.821 4.60897 23.7849 5.65576C23.7669 6.12502 23.9113 6.25135 24.3806 6.25135C31.2674 6.23331 38.1541 6.24233 45.0409 6.25135C46.0969 6.25135 45.9705 6.11599 45.9796 7.18084C45.9796 7.78545 45.9796 7.79448 45.3658 7.79448C39.869 7.79448 34.3633 7.79448 28.8665 7.79448C28.4453 7.79448 28.2347 8.00504 28.2347 8.42616C28.2347 20.3019 28.2347 32.1776 28.2347 44.0533C28.2347 44.4865 28.4543 44.7031 28.8936 44.7031C29.9857 44.7031 31.0778 44.7031 32.179 44.7031C32.4949 44.7031 32.6213 44.6128 32.6213 44.2789C32.6032 43.3404 32.6122 42.4019 32.6213 41.4634C32.6213 41.1656 32.5129 41.0483 32.2151 41.0573C31.6465 41.0754 31.0778 41.0663 30.5092 41.0573C29.9315 41.0573 29.6698 40.7866 29.6698 40.2C29.6698 39.2796 29.6698 38.3501 29.6698 37.4296C29.6698 36.825 29.9406 36.5633 30.5543 36.5633C35.5276 36.5633 40.5099 36.5633 45.4831 36.5543C45.8893 36.5543 46.0247 36.6806 46.0066 37.0867C45.9705 38.2689 46.133 38.1064 45.0138 38.1064C40.6272 38.1064 36.2316 38.1064 31.845 38.1064C31.4238 38.1064 31.2132 38.317 31.2132 38.7381C31.2132 38.8735 31.2132 39.0179 31.2132 39.1532C31.1952 39.4059 31.2945 39.5322 31.5562 39.5142C31.6916 39.5142 31.836 39.5142 31.9714 39.5142C36.4212 39.5142 40.8799 39.5142 45.3297 39.5142C45.9976 39.5142 46.0066 39.5142 45.9976 40.1549C45.9976 41.1656 46.0969 41.0483 45.1131 41.0483C42.631 41.0483 40.1488 41.0573 37.6757 41.0483C37.2696 41.0483 37.0981 41.1385 37.1161 41.5897C37.1522 42.447 37.1432 43.3133 37.1161 44.1797C37.1071 44.5857 37.2335 44.7031 37.6396 44.7031C40.212 44.685 42.7844 44.7031 45.3568 44.7031C45.9976 44.7031 45.9976 44.7031 45.9976 45.3347C45.9976 46.3635 46.1059 46.2462 45.086 46.2462C37.7389 46.2462 30.3919 46.2462 23.0358 46.2462L23.0177 46.2281ZM26.6913 26.2849C26.6913 22.6933 26.6913 19.1107 26.6913 15.5191C26.6913 13.1187 26.6913 10.7183 26.6913 8.30885C26.6913 8.14642 26.7635 7.90277 26.601 7.8396C26.2219 7.69521 25.8067 7.72228 25.4276 7.82155C25.1749 7.88472 25.2922 8.20056 25.2922 8.39909C25.2922 20.2838 25.2922 32.1686 25.2922 44.0623C25.2922 44.1526 25.2922 44.2519 25.2922 44.3421C25.2742 44.6038 25.3915 44.7121 25.6533 44.694C25.7435 44.694 25.8338 44.694 25.9331 44.694C26.7905 44.694 26.7183 44.7752 26.7183 43.936C26.7183 38.0523 26.7183 32.1686 26.7183 26.2939L26.6913 26.2849ZM35.5637 42.9163C35.5637 42.6095 35.5637 42.3027 35.5637 41.9958C35.5456 40.931 35.7352 41.0754 34.607 41.0483C34.2279 41.0393 34.1376 41.1927 34.1466 41.5356C34.1647 42.2575 34.1466 42.9795 34.1466 43.7014C34.1647 44.8204 33.912 44.676 35.1936 44.694C35.4825 44.694 35.5637 44.5677 35.5637 44.306C35.5547 43.8458 35.5637 43.3855 35.5637 42.9253V42.9163Z" fill="#4A3121"/>
    <path d="M14.9417 23.6673C15.9887 22.9724 17.1259 22.8281 18.2271 22.5483C19.0304 22.3408 19.4998 22.819 19.3192 23.6312C19.1748 24.2809 19.0214 24.9216 18.8318 25.5533C18.3625 27.1055 17.3335 28.1342 15.7991 28.6666C15.6547 28.7118 15.5193 28.7569 15.384 28.802C15.384 28.8471 15.384 28.8652 15.393 28.8742C15.5374 29.0908 15.9887 29.0366 15.9345 29.3525C15.8533 29.7676 15.6186 30.1466 15.3659 30.5076C15.2576 30.661 15.1132 30.5527 14.9868 30.5076C14.5806 30.309 14.1835 30.1195 13.7864 29.912C13.5246 29.7766 13.4253 29.8398 13.4344 30.1376C13.4705 31.6807 13.2177 31.3649 14.5987 31.3829C15.8804 31.4009 17.153 31.3829 18.4347 31.3829C19.1026 31.3829 19.3463 31.6356 19.3463 32.3124C19.3463 33.2058 19.3463 34.0992 19.3463 34.9925C19.3463 35.6242 19.0846 35.8769 18.4437 35.8859C17.8119 35.895 17.8209 35.895 17.7668 36.5086C17.5863 38.4398 17.3967 40.3619 17.1891 42.293C17.0989 43.1052 16.8732 43.2767 16.0428 43.2767C13.7773 43.2767 11.5119 43.2767 9.24636 43.2767C8.44305 43.2767 8.21741 43.1052 8.12715 42.3201C7.97371 40.9575 7.85637 39.5948 7.72098 38.2322C7.6578 37.5554 7.58559 36.8876 7.53144 36.2108C7.50436 35.913 7.32384 35.8859 7.08015 35.8769C6.07827 35.8408 5.96094 35.7054 5.96094 34.6947C5.96094 33.9097 5.96094 33.1246 5.96094 32.3395C5.96094 31.6175 6.19561 31.3829 6.93573 31.3829C8.41598 31.3829 9.89622 31.3739 11.3765 31.3829C11.7465 31.3829 11.8909 31.2836 11.8909 30.8956C11.8909 29.7225 11.9 29.7315 10.853 30.2459C9.89622 30.7241 10.0677 30.7873 9.58934 29.8488C9.30954 29.3074 9.31856 29.3074 9.94135 28.8562C9.86012 28.6937 9.6796 28.7208 9.54421 28.6757C7.94663 28.1342 6.91768 27.0604 6.44833 25.445C6.27684 24.8675 6.15048 24.2809 6.01509 23.6944C5.8075 22.792 6.24977 22.3227 7.14333 22.5483C8.22643 22.819 9.35467 22.9724 10.3746 23.6673C10.4197 22.9634 10.3746 22.3408 10.4829 21.7181C10.7085 20.3013 11.232 18.9928 11.9361 17.7475C12.2881 17.1248 13.0553 17.179 13.4163 17.8377C14.346 19.5343 14.9688 21.321 14.8966 23.2973C14.8966 23.3875 14.9056 23.4778 14.9146 23.6583L14.9417 23.6673ZM12.6672 35.8769C11.6202 35.8769 10.5732 35.8769 9.52616 35.8769C9.24636 35.8769 9.11999 35.913 9.1561 36.2649C9.33661 37.9615 9.49005 39.658 9.65252 41.3636C9.6796 41.6343 9.79693 41.7426 10.0587 41.7426C11.8007 41.7426 13.5427 41.7426 15.2847 41.7426C15.5554 41.7426 15.6728 41.6343 15.6908 41.3636C15.8443 39.6941 15.9887 38.0246 16.1782 36.3642C16.2234 35.9401 16.088 35.8769 15.7179 35.8859C14.698 35.904 13.6871 35.8859 12.6672 35.8859V35.8769ZM12.7123 32.917C11.2501 32.917 9.78791 32.917 8.32572 32.917C7.42313 32.917 7.52241 32.8177 7.51339 33.7382C7.51339 34.3338 7.51339 34.3338 8.13617 34.3338C11.0606 34.3338 13.9849 34.3338 16.9003 34.3338C17.9202 34.3338 17.7758 34.4782 17.8119 33.4223C17.83 32.9982 17.6675 32.908 17.2704 32.908C15.745 32.926 14.2286 32.908 12.7033 32.908L12.7123 32.917ZM13.3531 23.3063C13.308 22.2866 13.1997 21.312 12.8387 20.3825C12.8026 20.2833 12.7935 20.1389 12.6672 20.1389C12.5318 20.1389 12.5227 20.2742 12.4957 20.3735C11.8187 22.2956 11.8187 24.2268 12.4957 26.1489C12.5318 26.2482 12.5408 26.3926 12.6672 26.3926C12.8026 26.3926 12.8026 26.2572 12.8477 26.1579C13.2087 25.2285 13.317 24.2539 13.3622 23.3063H13.3531ZM10.7537 26.9701C10.7085 25.8872 9.35467 24.5336 8.13617 24.4343C7.89247 24.4163 7.89247 24.5246 7.92858 24.7141C8.13617 26.0136 9.14707 27.0243 10.4648 27.2589C10.6363 27.286 10.7808 27.3221 10.7537 26.9701ZM17.1801 24.4434C16.0248 24.4975 14.6799 25.8331 14.5716 27.0604C14.5536 27.2499 14.6077 27.304 14.7973 27.286C16.0248 27.1777 17.2523 25.9594 17.4057 24.696C17.4238 24.5246 17.4057 24.4163 17.1801 24.4524V24.4434Z" fill="#4A3121"/>
    <path d="M7.85908 10.7361C6.2254 10.7361 4.59171 10.7361 2.95803 10.7361C1.48681 10.7361 0.160007 9.49982 0.0516969 8.10108C-0.110769 6.11578 1.32435 4.95167 2.58797 4.78021C2.84069 4.74412 2.99413 4.71705 3.03024 4.39218C3.21075 2.30761 4.73613 0.683272 6.79403 0.340356C8.74362 0.0154886 10.6932 1.05326 11.5326 2.87613C11.6951 3.22807 11.8395 3.32733 12.2457 3.29124C14.5202 3.05661 15.9553 4.63583 16.3254 6.14285C16.8759 8.42595 15.1159 10.7181 12.7692 10.7271C11.1355 10.7271 9.50179 10.7271 7.86811 10.7271L7.85908 10.7361ZM7.85908 9.193C9.38445 9.193 10.9098 9.21105 12.4352 9.193C14.0599 9.17495 15.0527 8.01987 14.7639 6.53089C14.5021 5.2224 12.9948 4.4373 11.6861 5.10508C10.973 5.46605 10.4856 5.20435 10.3412 4.42828C10.3322 4.36511 10.3322 4.30194 10.3231 4.24779C10.0253 2.65955 8.57212 1.68495 6.91136 1.96469C5.47625 2.19932 4.43827 3.6522 4.63684 5.13215C4.79931 6.34138 4.51048 6.61211 3.31004 6.37748C2.32622 6.18797 1.46876 7.06331 1.67635 8.04694C1.82979 8.77789 2.40745 9.20203 3.29199 9.21105C4.81736 9.22007 6.34273 9.21105 7.86811 9.21105L7.85908 9.193Z" fill="#4A3121"/>
  </g>
  <defs>
    <clipPath id="clip0_2624_47771">
      <rect width="45.9417" height="45.9417" fill="white" transform="translate(0.046875 0.286133)"/>
    </clipPath>
  </defs>
</svg>