<svg xmlns="http://www.w3.org/2000/svg" width="60" height="51" viewBox="0 0 60 51" fill="none">
  <path d="M8.43385 46.9031C7.11883 46.9031 5.82774 46.9031 4.53663 46.9031C3.9628 46.9031 3.38896 46.9031 2.83904 46.8019C1.42838 46.4982 0.567639 45.3441 0.782824 44.1294C0.9741 42.9753 2.16957 42.1048 3.58023 42.1048C4.48879 42.1048 5.39735 42.1048 6.30591 42.1048C6.97538 42.1048 7.33405 41.8011 7.38187 41.2544C7.52532 39.8979 8.38605 39.1286 9.94016 38.9059C9.98798 38.9059 10.0358 38.8856 10.1314 38.8451C9.62934 38.1163 9.2707 37.3874 9.2707 36.5371C9.2707 34.9579 10.1314 33.8038 11.6855 32.994C11.8768 32.8928 12.1159 32.7308 12.1638 32.5486C12.8811 30.4835 14.2678 29.4712 16.8022 29.2687V26.1103H6.47329C6.25811 24.5311 6.68849 23.1746 7.9796 22.0408C8.84035 21.2715 9.77281 20.5426 10.777 19.7125H6.49719C6.28201 18.1536 6.68847 16.7971 7.95567 15.6836C8.84032 14.894 9.77279 14.1651 10.8248 13.3148H6.54502C6.30592 11.3104 6.35373 10.5208 8.0274 9.48825C11.2552 7.48388 13.7418 4.91262 15.4872 1.85546C15.9415 1.08611 16.5631 0.539461 17.639 0.478722C18.8106 0.417984 19.5757 0.903898 20.0778 1.77448C21.0581 3.4954 22.2296 5.11509 23.8077 6.51207C25.0271 7.58512 26.3421 8.61767 27.7049 9.54899C28.6852 10.2171 29.2829 10.9662 29.1873 12.0595C29.1634 12.4442 29.1873 12.8491 29.1873 13.2945H24.9075C26.5334 14.9345 28.8765 16.0277 29.1395 18.4168C31.7934 16.1492 34.9973 15.8658 37.8186 17.7487C38.1295 17.3033 38.4403 16.8781 38.7272 16.4327C38.7989 16.3112 38.8228 16.129 38.7989 15.9873C38.1534 13.6387 39.6597 11.5736 42.4093 11.0067C42.6244 10.9662 42.8635 10.8042 42.9831 10.6423C43.9395 9.28579 45.3023 8.53669 47.1912 8.53669C49.0561 8.53669 50.395 9.28579 51.3514 10.6423C51.471 10.8042 51.734 10.9662 51.9731 11.027C54.627 11.5736 56.1811 13.6994 55.5595 15.9468C55.5117 16.129 55.5595 16.3719 55.679 16.5137C56.731 17.7689 56.9462 19.1052 56.2528 20.5426C56.1811 20.6844 56.2529 20.9273 56.3485 21.0488C58.1417 22.8507 57.9982 25.179 55.9659 26.7987C55.7986 26.9202 55.679 27.1631 55.7029 27.3453C55.7986 29.0055 55.1052 30.3418 53.4315 31.2123C51.7579 32.0627 50.0603 32.0019 48.4105 31.1516C48.3627 31.1314 48.3149 31.1111 48.2432 31.0909C48.2432 31.0909 48.1954 31.0909 48.1715 31.0909V36.5776C49.9168 36.699 51.1123 37.4077 51.7339 38.7844C51.7818 38.9059 52.0926 39.0071 52.2839 39.0071C53.7185 39.0071 55.153 39.0071 56.6115 39.0071C58.2613 39.0071 59.5045 40.0599 59.5045 41.4366C59.5045 42.7729 58.2612 43.8257 56.6354 43.8257C53.049 43.8257 49.4625 43.8257 45.8761 43.8257C45.7088 43.8257 45.5653 43.8257 45.3979 43.8257C44.8002 43.8662 44.3938 44.1901 44.3699 44.6153C44.3699 45.0607 44.7763 45.4049 45.374 45.4251C46.2826 45.4251 47.1912 45.4251 48.0997 45.4251C49.7495 45.4251 50.9928 46.4779 50.9928 47.8547C50.9928 49.1909 49.7256 50.2235 48.0997 50.2235C35.8342 50.2235 23.5686 50.2235 11.303 50.2235C9.29463 50.2235 8.14697 48.9277 8.50562 47.0246L8.43385 46.9031ZM42.5049 45.3036C41.931 43.1981 43.8199 42.0238 45.7088 42.0643C49.1757 42.1655 52.6425 42.0845 56.1094 42.0845C57.0419 42.0845 57.544 41.8011 57.5201 41.2747C57.5201 40.7483 57.0419 40.4851 56.0855 40.4851C48.1714 40.4851 40.2813 40.4851 32.3673 40.4851C25.1227 40.4851 17.8542 40.4851 10.6096 40.4851C9.62934 40.4851 9.34243 40.7078 9.2707 41.5176C9.15115 42.6919 7.95567 43.6637 6.56892 43.684C5.61254 43.684 4.6801 43.684 3.72372 43.684C3.07816 43.684 2.64776 44.0281 2.64776 44.4938C2.64776 44.9595 3.07816 45.2632 3.72372 45.2834C3.89108 45.2834 4.03453 45.2834 4.2019 45.2834C8.19479 45.2834 12.1638 45.2834 16.1566 45.2834H16.8022V46.8828C15.0807 46.8828 13.3831 46.8828 11.6855 46.8828C10.7053 46.8828 10.2032 47.1663 10.2271 47.7129C10.2271 48.2393 10.7292 48.5025 11.6855 48.5025C23.6403 48.5025 35.619 48.5025 47.5737 48.5025C47.7411 48.5025 47.9563 48.543 48.0997 48.5025C48.3866 48.3811 48.7453 48.2596 48.8887 48.0571C49.2952 47.5105 48.7692 46.9233 47.9084 46.9233C45.661 46.9233 43.4134 46.9233 41.166 46.9233C40.9508 46.9233 40.7595 46.9233 40.5443 46.9233V45.3239H42.5049V45.3036ZM20.6516 18.0321H27.0355C27.0355 18.0321 27.1072 17.9511 27.155 17.9106C26.7963 17.4855 26.5095 16.9996 26.103 16.6351C25.1705 15.7848 24.1185 14.9952 23.2099 14.1449C22.5405 13.5172 21.8471 13.0718 20.7951 13.2338C20.7712 13.2338 20.7233 13.2135 20.6994 13.1933V11.6343H27.418C27.1311 11.3306 26.9637 11.1079 26.7485 10.946C23.1382 8.69865 20.3408 5.88444 18.3802 2.46285C18.2846 2.30088 18.0216 2.07817 17.8542 2.07817C17.639 2.07817 17.376 2.30088 17.2565 2.48309C15.2959 5.86419 12.5224 8.6784 8.91207 10.9257C8.67298 11.0877 8.50559 11.3307 8.2904 11.5331L8.38606 11.6546H14.9133V13.254C14.5069 13.254 14.1721 13.2338 13.8135 13.254C13.6222 13.254 13.3831 13.335 13.2636 13.4565C11.9486 14.5498 10.6335 15.6228 9.39025 16.7566C9.0077 17.1008 8.76861 17.5665 8.45779 17.9714C8.50561 18.0119 8.55342 18.0524 8.60124 18.0929H14.9612V19.6721C14.5547 19.6721 14.196 19.6721 13.8135 19.6721C13.6461 19.6721 13.431 19.753 13.3114 19.8543C11.9725 20.9678 10.6335 22.0813 9.34243 23.2354C8.98378 23.5593 8.76859 24.0047 8.43385 24.4704H26.2942C26.7007 23.7213 26.3899 23.1949 25.7204 22.6887C24.8358 22.0206 23.9989 21.312 23.2099 20.5629C22.5644 19.9555 21.871 19.4898 20.8429 19.6721C20.7951 19.6721 20.7473 19.6316 20.6994 19.6113V18.0726L20.6516 18.0321ZM51.6622 21.7574C50.5385 22.9519 49.4387 24.1059 48.3627 25.2802C48.2193 25.4422 48.0997 25.6649 48.0758 25.8471C48.0519 26.4545 48.028 27.0821 48.0758 27.6895C48.1475 28.7018 48.6975 29.4712 49.8451 29.8761C50.9449 30.2608 51.997 30.0988 52.8577 29.3902C53.7423 28.6816 53.9815 27.811 53.5511 26.8392C53.4554 26.6165 53.3598 26.3735 53.2641 26.1103C54.627 25.6649 55.6312 24.9765 55.6312 23.6808C55.6312 22.3445 54.5553 21.6764 53.312 21.1703C55.2486 18.7205 55.2486 18.5788 53.049 16.5541C53.1446 16.3922 53.2642 16.21 53.3598 16.0277C54.4357 14.2663 53.0012 12.3632 50.658 12.4847C50.0842 12.5252 49.9647 12.3227 49.8451 11.938C49.4865 10.7638 48.3866 10.0349 47.0716 10.0551C45.7805 10.0551 44.7046 10.8042 44.3699 11.938C44.2503 12.3632 44.059 12.5049 43.5091 12.4847C41.2855 12.3632 39.8509 14.2258 40.8073 15.9468C40.9269 16.1695 41.0703 16.3922 41.1899 16.5946C40.8791 16.8376 40.5682 17.0198 40.3052 17.2425C39.564 17.8904 39.2532 19.0647 39.6836 19.6923C41.5246 22.4458 41.8354 25.3612 40.9269 28.3981C40.8073 28.7626 40.9269 29.0055 41.166 29.2485C41.9311 29.9976 43.1265 30.281 44.2264 29.9571C45.3501 29.6331 46.1391 28.7626 46.1391 27.7098C46.163 26.0293 46.1391 24.3287 46.1391 22.6482C46.1391 22.466 46.0196 22.2636 45.9001 22.1218C45.111 21.2513 44.2742 20.4009 43.4613 19.5303C43.1505 19.2064 42.8635 18.8825 42.5527 18.5585C43.0787 18.1941 43.5569 17.8904 44.0351 17.5665C44.7285 18.2953 45.374 18.9634 46.1391 19.7733V14.9142H48.0519V22.9722C48.7931 22.1826 49.4625 21.4942 50.132 20.7856C50.6341 21.1298 51.0884 21.4335 51.6144 21.7979L51.6622 21.7574ZM23.4729 34.3505C23.4012 34.229 23.2578 33.9861 23.1143 33.7634C22.5644 32.9333 21.7036 32.4271 20.6038 32.5283C19.8387 32.6093 19.4801 32.3866 19.0975 31.9007C18.4041 31.0099 17.0891 30.6859 15.9175 31.0301C14.746 31.3743 13.9331 32.3461 14.0526 33.3787C14.1004 33.9253 13.8852 34.067 13.3114 34.1885C11.7095 34.5327 10.777 35.8892 11.3508 37.1647C11.6138 37.7721 12.2594 38.258 12.7615 38.8046C12.8332 38.8856 13.0484 38.8856 13.1919 38.8856C17.5673 38.8856 21.9427 38.8856 26.3182 38.8856C26.4855 38.8856 26.7007 38.8451 26.7964 38.7641C27.1311 38.4402 27.4897 38.1163 27.7527 37.7518C28.8047 36.3751 27.9201 34.4922 26.0073 34.1885C25.2422 34.067 24.4054 34.2695 23.4729 34.3505ZM34.83 32.3461C35.1169 32.2651 35.3321 32.2247 35.5472 32.1437C36.7905 31.6375 37.6513 30.8074 38.2729 29.7951C39.4684 27.8717 39.7792 25.8066 39.3967 23.6808C39.1098 22.1016 38.4881 20.6439 37.197 19.4493C36.0254 18.3763 34.6147 17.7892 32.8694 18.1941C31.4826 18.518 30.5023 19.3076 29.785 20.3199C28.3266 22.3648 27.9679 24.5919 28.3744 26.9202C28.6374 28.4589 29.2829 29.8761 30.5262 31.0706C31.1718 31.678 31.913 32.1437 32.9172 32.3461C32.9172 31.8805 32.8933 31.4755 32.9172 31.0504C32.965 30.5645 32.7976 30.1595 32.4629 29.7546C31.7695 28.9448 31.1479 28.0944 30.4784 27.2644C30.0719 26.7582 29.6894 26.252 29.259 25.7054C29.809 25.4017 30.3111 25.1183 30.8371 24.8146C31.5065 25.6649 32.1521 26.4747 32.7976 27.2846C32.8454 27.2846 32.8694 27.2643 32.9172 27.2441V21.312H34.83V23.7415C35.5711 22.9519 36.2167 22.2838 36.8862 21.5752C37.3883 21.9194 37.8664 22.2433 38.3685 22.5875C37.2448 23.782 36.145 24.936 35.0691 26.0901C34.9495 26.2318 34.7821 26.3938 34.7821 26.5557C34.7821 28.4791 34.7821 30.3822 34.7821 32.3664L34.83 32.3461ZM18.7389 26.0698C18.7389 27.1226 18.7389 28.1349 18.7389 29.1472C18.7389 29.4712 18.8584 29.6331 19.1931 29.7951C19.6474 30.0178 20.0061 30.362 20.4364 30.6252C20.6038 30.7264 20.7951 30.8277 20.9863 30.8479C22.1818 30.9491 23.2339 31.3338 24.0468 32.1032C24.3815 32.4069 24.6923 32.4879 25.1466 32.4676C28.0157 32.3866 30.1915 34.2088 30.0719 36.6181C30.0241 37.3672 29.6416 38.096 29.4025 38.8249H32.9172V34.0468C28.3027 32.7915 26.892 29.6534 26.2703 26.0496H18.7389V26.0698ZM39.9705 30.524C38.7989 32.2449 37.2448 33.5811 34.8778 34.0063V38.6832C35.3082 38.2175 35.7146 37.6506 36.2645 37.2052C36.5514 36.9622 36.7666 36.7395 36.8623 36.3954C37.2926 34.8364 38.4642 33.8038 40.2813 33.3989C42.1463 32.994 43.7243 33.4799 45.0393 34.6542C45.3262 34.9174 45.7327 35.0996 46.1631 35.383V30.9491C43.1983 32.0019 42.5049 31.9614 39.9705 30.524ZM46.4021 38.5414C46.2826 38.2175 46.187 37.9543 46.1152 37.7114C45.9001 37.0837 45.4219 36.6586 44.6568 36.5371C44.2503 36.4763 44.0351 36.2941 43.8199 36.0107C43.1983 35.1603 42.0506 34.7352 40.9986 34.9174C39.5162 35.1806 38.5598 36.1726 38.6555 37.4684C38.6794 37.8733 38.5359 38.0555 38.1055 38.177C37.723 38.2985 37.4122 38.5414 37.0774 38.7237L37.1731 38.8451H49.6777C48.6974 37.7518 47.5976 38.0758 46.4261 38.5212L46.4021 38.5414ZM27.0355 21.4132C27.3224 20.8666 27.6332 20.2794 27.944 19.6923H25.027C25.6726 20.2592 26.3421 20.8261 27.0115 21.4132H27.0355Z" fill="#4A3121"/>
  <path d="M16.8672 43.6441V42.1459C18.1344 42.1459 19.4255 42.0649 20.6688 42.1662C21.6969 42.2471 22.4142 43.0367 22.4859 43.9478C22.5337 44.3527 22.7489 44.5147 23.2032 44.5147C24.2074 44.5147 25.2116 44.5147 26.2397 44.5147V46.0939C25.0203 46.0939 23.8009 46.1344 22.5816 46.0939C21.5774 46.0332 20.7405 45.2436 20.621 44.3932C20.5253 43.7453 20.5014 43.7049 19.7124 43.7049C18.8038 43.7049 17.8953 43.7049 16.9867 43.7049C16.9628 43.7049 16.915 43.6846 16.8672 43.6644V43.6441Z" fill="#4A3121"/>
</svg>