<svg xmlns="http://www.w3.org/2000/svg" width="61" height="48" viewBox="0 0 61 48" fill="none">
  <g clipPath="url(#clip0_2625_47793)">
    <path d="M60.5209 46.5201C60.2209 47.1201 59.7109 47.2501 59.0909 47.2501C56.0009 47.2401 52.9109 47.2501 49.8209 47.2501C33.7909 47.2501 17.7709 47.2501 1.74088 47.2501C1.46088 47.2501 1.19088 47.2501 0.920883 47.2201C0.300883 47.1301 -0.0191166 46.7601 0.000883373 46.2001C0.0308834 45.6601 0.410883 45.3201 1.05088 45.3201C3.00088 45.3201 4.95088 45.3201 6.90088 45.3201C7.29088 45.3201 7.69088 45.3201 8.08088 45.3201C8.38088 45.3201 8.51088 45.2001 8.51088 44.9001C8.51088 44.3701 8.49088 43.8401 8.51088 43.3101C8.53088 42.9201 8.36088 42.7901 7.98088 42.8001C7.01088 42.8401 6.05088 42.7501 5.11088 42.5601C2.28088 41.9801 0.900883 40.0601 0.370883 37.3901C-0.299117 34.0301 0.0408834 30.7001 0.800883 27.3901C1.54088 24.1401 2.73088 21.0701 4.61088 18.2901C5.41088 17.1101 6.34088 16.0401 7.61088 15.3301C7.94088 15.1501 7.93088 14.8801 7.93088 14.5801C7.93088 12.0001 7.90088 9.42006 7.93088 6.84007C7.97088 4.01007 9.27088 1.88006 11.7309 0.470065C11.9709 0.330065 12.2209 0.220065 12.4809 0.130065C13.1009 -0.0899352 13.6109 0.110065 13.8209 0.620065C14.0209 1.12006 13.7809 1.64006 13.1909 1.90006C12.3609 2.26006 11.6309 2.73006 11.0609 3.44006C10.2909 4.39006 9.86088 5.46006 9.86088 6.69006C9.86088 9.19007 9.86088 11.6901 9.86088 14.1901C9.86088 14.4501 9.78088 14.7601 10.1709 14.8601C11.7109 15.2801 12.7709 16.3501 13.7409 17.5501C13.8109 17.6401 13.8509 17.7601 14.0109 17.7601C14.1509 17.6101 14.0809 17.4301 14.0809 17.2601C14.0809 15.5101 14.0809 13.7601 14.0909 12.0001C14.0909 11.5701 13.9609 11.2501 13.6509 10.9601C13.1209 10.4601 12.6109 9.94007 12.1009 9.42006C11.6109 8.91006 11.5809 8.38006 12.0009 7.96006C12.4309 7.53007 12.9309 7.57006 13.4509 8.08006C13.6109 8.24006 13.7209 8.46006 13.8509 8.66006C13.9109 8.62006 13.9809 8.58006 14.0409 8.54006C14.0609 8.24006 14.0609 7.93007 14.0909 7.63006C14.1609 6.98006 14.5709 6.59006 15.1109 6.62006C15.6509 6.65006 16.0109 7.06006 16.0109 7.73006C16.0109 9.36006 16.0109 11.0001 16.0109 12.6301C16.2409 12.7101 16.3009 12.5101 16.4109 12.4301C16.8409 12.1301 17.3709 12.1601 17.7009 12.5001C18.0509 12.8701 18.0809 13.3601 17.7209 13.7801C17.3409 14.2101 16.9509 14.6401 16.5109 14.9901C15.9709 15.4301 15.9409 15.9601 16.0609 16.6301C16.4409 16.2801 16.7809 15.9601 17.1309 15.6601C17.9509 14.9701 18.8609 14.4301 19.8609 14.0401C20.1909 13.9101 20.3109 13.7301 20.3109 13.3801C20.3009 11.1401 20.3709 8.89007 20.2809 6.65006C20.1909 4.49006 19.1109 2.90006 17.1209 1.97006C16.8509 1.85006 16.5709 1.75006 16.3909 1.49006C16.1509 1.12006 16.1409 0.750065 16.4109 0.390065C16.7109 6.48201e-05 17.1209 -0.0899352 17.5709 0.0800648C18.9509 0.600065 20.0609 1.49006 20.9209 2.70006C21.8809 4.05007 22.2209 5.59006 22.2309 7.22006C22.2309 9.07006 22.2409 10.9201 22.2309 12.7701C22.2309 13.2301 22.3409 13.3601 22.8409 13.3201C24.7209 13.1501 26.5209 13.4801 28.2309 14.3001C28.9009 14.6201 28.9009 14.6201 29.0409 13.8601C29.5809 10.9901 30.3109 8.18007 31.4309 5.48006C31.8809 4.41006 32.3909 3.36006 33.1909 2.50006C34.4509 1.16006 35.6609 1.16006 36.9209 2.52006C37.1909 2.81006 37.4409 3.12006 37.6309 3.46006C37.8609 3.90006 38.1209 3.94006 38.5809 3.79006C42.8709 2.40006 47.4609 4.41006 49.3609 8.49006C49.6809 9.17006 49.9109 9.88006 50.0309 10.6201C50.0909 10.9701 50.2209 11.2301 50.5309 11.4401C51.4709 12.0501 52.2209 12.8501 52.7809 13.8301C52.9409 14.1101 53.1409 14.2701 53.4509 14.3401C57.3309 15.2701 59.6309 17.7401 60.4709 21.6101C60.4709 21.6501 60.4909 21.6801 60.5109 21.7201V24.4401C60.1709 26.0601 59.5709 27.5701 58.4509 28.8101C58.1609 29.1301 58.1709 29.3601 58.3509 29.7301C59.7009 32.4701 60.4209 35.3501 60.0809 38.4401C59.8609 40.4701 58.8609 41.7501 57.1009 42.1401C56.8109 42.2001 56.5209 42.2601 56.2309 42.2701C55.7809 42.2701 55.6709 42.5101 55.6909 42.9101C55.7109 43.5201 55.7109 44.1301 55.6909 44.7401C55.6709 45.1801 55.8409 45.3301 56.2709 45.3201C57.2509 45.3001 58.2409 45.3301 59.2209 45.3101C59.7809 45.2901 60.2209 45.4501 60.5209 45.9401V46.5301V46.5201ZM8.32088 34.1201C8.38088 34.0901 8.44088 34.0601 8.50088 34.0201C8.50088 33.8301 8.50088 33.6401 8.50088 33.4401C8.50088 31.2901 8.50088 29.1501 8.50088 27.0001C8.50088 26.2301 8.82088 25.8101 9.41088 25.8001C10.0309 25.7901 10.3509 26.2001 10.3609 27.0101C10.3609 27.5001 10.3609 27.9901 10.3609 28.4901C10.3609 28.7801 10.3909 28.9401 10.7509 28.8101C11.2109 28.6501 11.6109 28.8101 11.8609 29.2401C12.1109 29.6701 12.0109 30.0801 11.6809 30.4301C11.4009 30.7301 11.1209 31.0401 10.8009 31.3101C10.4609 31.6101 10.3409 31.9501 10.3409 32.4001C10.3609 34.3301 10.3409 36.2601 10.3409 38.1901C10.3409 38.9001 10.3409 39.6101 10.3409 40.3201C10.3409 40.5601 10.3409 40.8301 10.6809 40.8301C11.9209 40.8501 13.1609 40.8401 14.3409 40.3501C14.6809 40.2101 14.7109 40.0801 14.4109 39.8401C13.5909 39.1701 13.1209 38.2601 12.8609 37.2501C12.3609 35.3501 12.4309 33.4301 12.6509 31.5101C12.7209 30.9201 13.1609 30.6001 13.7309 30.6601C14.2609 30.7201 14.6309 31.1801 14.5609 31.7501C14.4109 32.9301 14.4309 34.1101 14.4809 35.2901C14.5109 35.9601 14.6509 36.6101 14.8809 37.2401C15.2109 38.1301 15.8309 38.6701 16.7509 38.8601C17.1309 38.9401 17.5209 39.0001 17.9209 39.0301C18.6409 39.0901 18.7009 39.0301 18.7009 38.3101C18.7009 35.6701 18.7009 33.0401 18.7009 30.4001C18.7009 30.1301 18.7009 29.8501 18.7409 29.5801C18.8309 28.9301 19.1709 28.6301 19.7409 28.6501C20.3009 28.6701 20.6109 29.0301 20.6209 29.6901C20.6209 30.8501 20.6209 32.0101 20.6209 33.1701C20.6209 33.3101 20.5409 33.4801 20.7909 33.6401C21.2009 33.2101 21.6109 32.7601 22.0409 32.3301C22.3209 32.0401 22.6509 31.8901 23.0509 31.9901C23.7909 32.1801 23.9909 33.0301 23.4209 33.6201C22.6209 34.4601 21.7809 35.2701 20.9609 36.0901C20.7809 36.2701 20.6009 36.4501 20.6109 36.7401C20.6209 37.3701 20.6109 38.0001 20.6109 38.6301C20.6109 38.8501 20.6709 38.9901 20.9309 39.0401C22.6709 39.3701 24.2409 38.3801 24.6709 36.6601C24.7709 36.2401 24.8709 35.8101 24.9009 35.3901C25.1409 31.5201 24.3209 27.8901 22.4609 24.4901C21.9809 23.6101 21.4109 22.7801 20.6109 22.1301C19.9309 21.5801 19.3709 21.5901 18.7009 22.1601C18.3509 22.4501 18.0509 22.7901 17.7709 23.1501C16.7409 24.5001 16.0609 26.0201 15.5009 27.6001C15.2709 28.2401 14.7509 28.5201 14.2209 28.3201C13.6809 28.1301 13.4809 27.6101 13.7009 26.9601C14.0009 26.0701 14.3609 25.1901 14.8009 24.3501C14.9509 24.0701 14.9709 23.8201 14.8509 23.5101C14.3309 22.2501 13.7509 21.0301 13.0109 19.8801C12.3509 18.8501 11.6109 17.8801 10.5909 17.1601C9.75088 16.5701 9.11088 16.5601 8.25088 17.1301C7.63088 17.5301 7.14088 18.0701 6.69088 18.6401C4.94088 20.9001 3.84088 23.4801 3.05088 26.2001C2.04088 29.6701 1.59088 33.2001 2.18088 36.8101C2.54088 39.0101 3.54088 40.2001 5.40088 40.6401C6.27088 40.8501 7.16088 40.8301 8.04088 40.8401C8.43088 40.8401 8.49088 40.6201 8.48088 40.3001C8.48088 39.3001 8.47088 38.2901 8.48088 37.2901C8.48088 36.9901 8.36088 36.7701 8.16088 36.5701C7.53088 35.9501 6.90088 35.3201 6.28088 34.6901C5.75088 34.1501 5.69088 33.6101 6.11088 33.1901C6.52088 32.7701 7.09088 32.8101 7.61088 33.3301C7.86088 33.5801 8.08088 33.8601 8.31088 34.1301L8.32088 34.1201ZM36.1109 28.2501C36.5509 27.7901 36.9309 27.3501 37.3409 26.9401C37.8709 26.4001 38.4209 26.3401 38.8409 26.7401C39.3009 27.1801 39.2609 27.7101 38.6909 28.2801C37.9209 29.0601 37.1409 29.8501 36.3509 30.6201C36.0909 30.8701 35.9809 31.1401 35.9809 31.5101C36.0009 32.6101 36.0009 33.7101 35.9809 34.8201C35.9809 35.2501 36.1109 35.4201 36.5609 35.3901C37.8709 35.3001 38.8309 34.7301 39.3509 33.4701C40.0109 31.8601 40.1909 30.1501 40.2709 28.4501C40.5209 22.8801 39.9909 17.3701 38.7209 11.9401C38.5609 11.2601 38.8109 10.7501 39.3409 10.6101C39.9309 10.4501 40.4009 10.8101 40.5909 11.5401C40.7109 12.0001 40.7209 12.4901 40.9709 12.9701C41.1109 12.8201 41.2209 12.7001 41.3309 12.5901C43.0109 10.8601 45.0209 10.0301 47.4509 10.3201C47.9509 10.3801 48.0209 10.2801 47.8209 9.75006C46.6109 6.48006 43.0209 4.62006 39.5709 5.49006C39.0442 5.6234 38.8809 5.95006 39.0809 6.47006C39.1609 6.69006 39.2509 6.91006 39.3109 7.14006C39.4509 7.66006 39.2109 8.16006 38.7309 8.34007C38.2709 8.51007 37.7909 8.31007 37.5609 7.82007C37.4109 7.50006 37.3009 7.16006 37.1709 6.83006C36.7509 5.79006 36.3109 4.75006 35.5909 3.87006C35.1609 3.34006 34.9709 3.34007 34.5409 3.88006C33.8509 4.75006 33.3809 5.75006 32.9909 6.79006C31.0009 12.0901 30.1509 17.6101 29.8609 23.2301C29.7509 25.4101 29.7409 27.6001 29.9609 29.7801C30.0809 30.9801 30.2809 32.1501 30.7009 33.2901C31.1809 34.5901 32.1009 35.2801 33.4809 35.3901C33.9609 35.4301 34.1409 35.2901 34.1409 34.7801C34.1209 31.8501 34.1209 28.9101 34.1409 25.9801C34.1409 25.5901 34.0109 25.3101 33.7409 25.0501C33.0509 24.3801 32.3609 23.7001 31.6909 23.0001C31.2209 22.5101 31.2109 22.0001 31.6209 21.5901C32.0009 21.2101 32.5909 21.2301 33.0409 21.6701C33.3709 21.9901 33.6709 22.3401 34.0209 22.7201C34.0909 22.5501 34.1209 22.5101 34.1209 22.4801C34.1209 22.0701 34.1209 21.6501 34.1209 21.2401C34.1209 20.5201 34.4609 20.1001 35.0309 20.0901C35.6209 20.0701 35.9809 20.5001 35.9809 21.2501C35.9809 23.3201 35.9809 25.3801 35.9809 27.4501C35.9809 27.6801 35.9209 27.9201 36.0909 28.2601L36.1109 28.2501ZM47.5609 28.2201C47.7209 28.1101 47.7809 28.0701 47.8409 28.0301C48.3609 27.6201 48.8909 27.6001 49.2609 27.9901C49.6709 28.4201 49.6209 28.9201 49.1109 29.4501C48.7009 29.8701 48.2809 30.2901 47.8609 30.7001C47.7009 30.8501 47.5709 31.0101 47.5709 31.2501C47.5709 32.7301 47.5709 34.2001 47.5709 35.6801C47.5709 35.8101 47.5409 35.9601 47.7409 36.0101C48.2209 36.1301 49.3309 35.4201 49.4109 34.9201C49.7909 32.6901 50.4509 30.5601 51.7009 28.6501C51.8609 28.4001 51.8609 28.1301 51.8609 27.8601C51.8609 24.4001 51.8609 20.9301 51.8609 17.4701C51.8609 16.9701 51.7809 16.4901 51.6409 16.0201C51.0209 13.8301 49.0709 12.2501 46.9309 12.1901C44.5509 12.1201 42.3809 13.5901 41.6309 15.7801C41.5409 16.0501 41.5109 16.3201 41.5509 16.5901C41.8409 18.4901 42.0509 20.4101 42.1509 22.3301C42.3209 25.6501 42.3809 28.9701 41.7209 32.2601C41.6709 32.5101 41.6809 32.7201 41.7809 32.9501C42.4209 34.4501 43.5409 35.4301 45.0809 35.9501C45.4909 36.0901 45.6409 35.9701 45.6309 35.5201C45.6209 32.8001 45.6209 30.0901 45.6309 27.3701C45.6309 27.0301 45.5209 26.7701 45.2809 26.5401C44.7009 25.9801 44.1209 25.4101 43.5709 24.8201C43.1409 24.3601 43.1509 23.8501 43.5509 23.4601C43.9309 23.0901 44.4809 23.1101 44.9309 23.5001C45.1309 23.6701 45.2709 23.9301 45.5909 24.0401C45.6209 23.6701 45.6209 23.3201 45.6809 22.9801C45.7909 22.3701 46.1909 22.0901 46.7709 22.1601C47.2709 22.2201 47.5709 22.5901 47.5709 23.2201C47.5709 24.8501 47.5709 26.4801 47.5709 28.2301L47.5609 28.2201ZM24.7909 19.6201C24.9509 19.4901 25.0209 19.4401 25.1009 19.3701C25.6709 18.9001 26.1609 18.8701 26.5609 19.3001C26.9609 19.7201 26.9209 20.2401 26.4309 20.7701C26.1509 21.0701 25.8809 21.4001 25.5509 21.6401C24.3809 22.5001 24.5209 23.7701 24.8809 24.8001C25.6109 26.8601 26.3809 28.8901 26.6809 31.0701C26.7009 31.2201 26.7309 31.3901 26.9409 31.4101C27.4809 31.4601 28.1709 30.7601 28.1009 30.2201C27.9509 29.0301 27.8909 27.8301 27.8809 26.6301C27.8309 23.5401 28.0209 20.4601 28.4709 17.4001C28.5509 16.8401 28.4009 16.5201 27.8809 16.2401C26.4709 15.5001 24.9909 15.1601 23.4009 15.2101C20.1609 15.3101 17.1209 17.4201 15.9509 20.4201C15.8909 20.5801 15.7809 20.7501 15.8509 20.9301C15.9609 21.2201 16.0209 21.6301 16.2909 21.7301C16.5709 21.8401 16.6909 21.4301 16.8609 21.2401C18.6209 19.3101 20.5109 19.2601 22.3809 21.0901C22.4909 21.2001 22.5609 21.4001 22.8209 21.3701C22.8209 20.5601 22.8109 19.7501 22.8209 18.9501C22.8309 18.3801 23.1709 18.0401 23.6709 18.0001C24.2309 17.9601 24.5909 18.2301 24.7109 18.8201C24.7609 19.0501 24.7709 19.2801 24.8009 19.6201H24.7909ZM53.7509 36.8401C53.7509 35.8801 53.7509 34.9101 53.7509 33.9501C53.7509 33.2901 54.1209 32.8801 54.6709 32.8601C55.2409 32.8301 55.6609 33.2501 55.6909 33.9201C55.7109 34.4501 55.7109 34.9801 55.6909 35.5101C55.6809 35.8601 55.7209 36.0201 56.1309 35.8601C56.5609 35.6901 56.9609 35.8401 57.2109 36.2401C57.4709 36.6601 57.4109 37.0701 57.0809 37.4301C56.8409 37.6901 56.6109 37.9601 56.3309 38.1801C55.7909 38.6001 55.6509 39.1201 55.6809 39.7801C55.7009 40.2901 55.9209 40.3801 56.3409 40.3201C57.4009 40.1801 57.9209 39.6801 58.1109 38.5801C58.3109 37.4401 58.2809 36.3101 58.1109 35.1801C57.7809 33.0601 57.1609 31.0301 55.8309 29.3001C54.9209 28.1101 54.4209 28.1201 53.5509 29.3501C51.6709 32.0201 50.9809 35.0201 51.2509 38.2401C51.3709 39.6601 51.9609 40.2101 53.1409 40.3301C53.5609 40.3701 53.7609 40.2601 53.7509 39.8001C53.7209 38.8201 53.7509 37.8301 53.7509 36.8501V36.8401ZM53.7909 21.4901C53.7909 23.2201 53.7909 24.6501 53.7909 26.0901C53.7909 26.3401 53.7409 26.6501 54.1809 26.5401C55.0909 26.3201 55.8609 26.6501 56.5109 27.2401C56.9209 27.6201 57.1209 27.4601 57.3709 27.1001C58.4309 25.5801 58.7909 23.9101 58.6009 22.0701C58.3609 19.7801 56.3509 17.2301 54.1909 16.5201C53.7909 16.3901 53.6809 16.5201 53.7209 16.8901C53.8909 18.5201 53.7409 20.1501 53.8009 21.4901H53.7909ZM47.5609 41.6301C47.5609 42.6701 47.5709 43.7101 47.5609 44.7501C47.5609 45.1601 47.6909 45.3101 48.1009 45.3001C49.8109 45.2801 51.5209 45.2901 53.2309 45.3001C53.6009 45.3001 53.7709 45.1801 53.7609 44.7901C53.7409 44.2601 53.7609 43.7301 53.7609 43.2001C53.7609 42.6201 53.4709 42.2867 52.8909 42.2001C50.8109 41.9001 49.7409 40.8601 49.4109 38.8001C49.2309 37.6601 49.2309 37.6801 48.1409 37.9001C47.7009 37.9901 47.5609 38.1801 47.5709 38.6101C47.5909 39.6101 47.5709 40.6101 47.5709 41.6201L47.5609 41.6301ZM24.7609 42.6001H24.7509C24.7509 43.3301 24.7609 44.0501 24.7509 44.7801C24.7509 45.1501 24.8809 45.3101 25.2609 45.3101C26.2409 45.2901 27.2209 45.2901 28.2009 45.3101C28.5809 45.3101 28.7309 45.1801 28.7209 44.8001C28.7109 43.3901 28.7109 41.9701 28.7209 40.5601C28.7209 40.2201 28.6009 40.0801 28.2509 40.0501C27.4709 39.9701 26.7009 39.8201 25.9709 39.5101C25.6309 39.3601 25.4009 39.4401 25.1409 39.6901C24.8709 39.9401 24.7409 40.1901 24.7509 40.5501C24.7709 41.2401 24.7509 41.9201 24.7509 42.6101L24.7609 42.6001ZM34.1309 41.9201C34.1309 40.9401 34.1309 39.9601 34.1309 38.9701C34.1309 38.7301 34.1309 38.4901 33.7909 38.7101C32.9309 39.2401 32.0109 39.6201 31.0209 39.8401C30.7409 39.9001 30.6609 40.0901 30.6609 40.3601C30.6609 41.8301 30.6709 43.3101 30.6609 44.7801C30.6609 45.1701 30.8109 45.3001 31.1909 45.2901C31.9909 45.2701 32.8009 45.2701 33.6009 45.2901C34.0209 45.3001 34.1509 45.1401 34.1409 44.7401C34.1209 43.8001 34.1409 42.8601 34.1409 41.9101L34.1309 41.9201ZM41.6009 40.6501C41.6009 39.3301 41.5609 38.0101 41.6209 36.7001C41.6509 36.0001 41.1609 35.6501 40.8509 35.1801C40.7909 35.0801 40.6809 35.0601 40.6109 35.1701C40.3209 35.6601 39.8309 36.0001 39.8509 36.7001C39.9009 39.2001 39.8609 41.6901 39.8709 44.1901C39.8709 45.4201 39.7209 45.2801 41.0309 45.3101C41.4709 45.3101 41.6109 45.1601 41.6109 44.7301C41.5909 43.3701 41.6109 42.0201 41.6109 40.6601L41.6009 40.6501ZM32.5809 37.1701C30.5609 36.7601 29.5009 35.5101 28.8609 33.8201C28.5009 32.8801 28.5109 32.9201 27.5409 33.2501C27.0209 33.4301 26.8509 33.7001 26.8809 34.2401C26.9309 35.2201 26.8009 36.2001 26.5409 37.1501C26.4409 37.5201 26.5409 37.6801 26.8909 37.7901C28.0609 38.1601 29.2409 38.2001 30.4409 38.0001C31.1509 37.8801 31.8209 37.6401 32.5909 37.1701H32.5809ZM37.9209 41.2101V38.3801C37.9209 37.0801 37.9209 37.1101 36.6409 37.2601C36.0909 37.3301 35.9809 37.5501 35.9909 38.0501C36.0109 40.0201 35.9909 41.9801 36.0009 43.9501C36.0109 45.5001 35.7109 45.2701 37.3909 45.3001C37.8109 45.3001 37.9409 45.1401 37.9309 44.7401C37.9109 43.5601 37.9309 42.3801 37.9309 41.2001L37.9209 41.2101ZM43.5409 41.3201V43.9101C43.5409 45.3101 43.5409 45.2901 44.9409 45.3101C45.4509 45.3101 45.6309 45.1701 45.6209 44.6401C45.6009 42.6601 45.6009 40.6701 45.6209 38.6901C45.6209 38.1801 45.4709 37.9301 44.9509 37.8801C44.6409 37.8501 44.3409 37.7201 44.0509 37.6001C43.6709 37.4401 43.5209 37.5201 43.5309 37.9601C43.5509 39.0801 43.5309 40.2001 43.5309 41.3201H43.5409ZM18.7109 43.1401C18.7109 42.5901 18.7109 42.0401 18.7109 41.4901C18.7109 41.2701 18.7009 41.0401 18.4109 40.9901C17.9609 40.9201 17.5209 40.8401 17.0609 40.8901C16.6509 40.9301 16.0309 41.5701 16.0309 41.9501C16.0209 42.9101 16.0309 43.8701 16.0309 44.8401C16.0309 45.1601 16.1509 45.3101 16.4809 45.3001C17.0509 45.2901 17.6209 45.2801 18.1909 45.3001C18.5709 45.3101 18.7309 45.1601 18.7209 44.7801C18.7109 44.2301 18.7209 43.6801 18.7209 43.1301L18.7109 43.1401ZM12.1709 45.3001C12.6609 45.3001 13.1509 45.3001 13.6409 45.3001C13.9309 45.3001 14.0809 45.1901 14.0809 44.8901C14.0809 44.2401 14.0809 43.6001 14.0809 42.9501C14.0809 42.6501 13.9509 42.5001 13.6509 42.5501C12.7009 42.7201 11.7509 42.8001 10.7909 42.7701C10.4909 42.7701 10.3609 42.9001 10.3709 43.1901C10.3709 43.7401 10.3709 44.2901 10.3709 44.8401C10.3709 45.1601 10.5009 45.3001 10.8209 45.2901C11.2709 45.2801 11.7209 45.2901 12.1709 45.2901V45.3001ZM22.8009 42.9901C22.8009 42.8101 22.8009 42.6401 22.8009 42.4601C22.8009 40.7401 22.8009 40.7501 21.0909 40.9701C20.7409 41.0201 20.6209 41.1501 20.6209 41.4901C20.6309 42.2401 20.6109 42.9801 20.6209 43.7301C20.6709 45.6201 20.2209 45.2601 22.3009 45.3101C22.6609 45.3101 22.7909 45.1701 22.7809 44.8201C22.7709 44.2101 22.7809 43.6001 22.7809 42.9901H22.8009Z" fill="#4A3121"/>
  </g>
  <defs>
    <clipPath id="clip0_2625_47793">
      <rect width="60.52" height="47.24" fill="white"/>
    </clipPath>
  </defs>
</svg>