<svg xmlns="http://www.w3.org/2000/svg" width="51" height="53" viewBox="0 0 51 53" fill="none">
  <g clipPath="url(#clip0_2624_47735)">
    <path d="M46.3297 52.4571H2.16491C2.15455 52.268 2.13383 52.0894 2.12347 51.9003C2.12347 50.734 2.12347 50.7235 3.24235 50.692C3.60495 50.692 3.74999 50.5449 3.74999 50.1772C3.73963 48.8848 3.73963 47.5925 3.74999 46.3002C3.74999 45.8589 3.57387 45.7433 3.16983 45.7538C2.43427 45.7748 1.6987 45.7538 0.952783 45.7538C0.569463 45.7538 0.414062 45.6277 0.414062 45.2285C0.424423 43.8731 0.424423 42.5072 0.414062 41.1518C0.414062 40.7421 0.559103 40.574 0.973503 40.5845C1.72978 40.6055 2.48607 40.5845 3.23199 40.5845C3.59459 40.5845 3.73963 40.4479 3.73963 40.0696C3.72927 38.7773 3.72927 37.485 3.73963 36.1927C3.73963 35.7514 3.56351 35.6358 3.15947 35.6463C2.40319 35.6673 1.6469 35.6463 0.900983 35.6463C0.559103 35.6463 0.414062 35.5202 0.414062 35.1735C0.414062 33.7656 0.414062 32.3472 0.414062 30.9393C0.414062 30.582 0.579823 30.4665 0.911343 30.4665C1.45006 30.477 1.98879 30.4665 2.51715 30.4665C3.88467 30.456 3.71891 30.6346 3.72927 29.2477C3.72927 28.88 3.68783 28.5122 3.99863 28.2075C4.95175 27.2724 5.88415 26.3163 6.80619 25.3602C7.05483 25.0975 7.23095 25.129 7.46923 25.3707C8.2566 26.1902 9.02324 27.0203 9.8624 27.7767C10.3804 28.2495 10.5876 28.7644 10.5462 29.4683C10.4944 30.498 10.5358 30.4875 11.5614 30.4665C11.924 30.4665 12.0794 30.3404 12.0794 29.9621C12.0794 28.113 12.0691 26.2533 12.0794 24.4041C12.0794 23.9943 11.9033 23.8682 11.5304 23.8787C10.9398 23.8892 10.3597 23.8787 9.76916 23.8787C6.24675 23.8157 3.62567 21.0734 3.72927 17.5537C3.73963 17.1439 3.87431 16.9758 4.28871 16.9863C5.49047 17.0073 6.70259 17.0073 7.91471 16.9863C9.31332 16.9653 10.5462 17.4276 11.6443 18.2891C11.7583 18.3732 11.8412 18.5728 12.0173 18.4783C12.1416 18.4047 12.0794 18.2261 12.0794 18.1C12.0794 16.0092 12.0794 13.9183 12.0794 11.8275C12.0794 11.3757 11.924 11.2286 11.4889 11.2286C10.598 11.2286 9.71736 11.2706 8.8264 11.155C6.01883 10.7663 3.58423 8.2867 3.72927 4.77745C3.73963 4.52528 3.82251 4.34667 4.10223 4.34667C5.78055 4.3887 7.45887 4.19957 9.11648 4.47275C9.53088 4.5463 9.76916 4.45174 10.0178 4.13653C10.8673 3.04383 11.7376 1.96163 12.5871 0.858425C12.8564 0.511702 13.0222 0.490688 13.3019 0.858425C14.1618 1.98265 15.0528 3.09636 15.9334 4.21008C16.0784 4.3992 16.2234 4.58832 16.5135 4.52528C18.2229 4.16805 19.9531 4.42022 21.6728 4.34667C22.0147 4.33616 22.1805 4.47275 22.1701 4.81947C22.1494 5.1767 22.139 5.53393 22.1079 5.89116C21.8697 8.58089 19.6733 10.8504 17.0315 11.1656C16.1406 11.2706 15.26 11.2181 14.369 11.2391C14.1514 11.2391 13.8717 11.2391 13.8717 11.5333C13.851 12.4579 13.8717 13.3825 13.8717 14.3596C15.9748 12.7731 16.9797 12.7416 19.3625 12.7521C19.8184 12.7521 20.2639 12.7416 20.7197 12.7521C22.1805 12.7941 22.2944 12.4054 22.1183 14.2966C21.88 16.8392 19.922 19.0456 17.4563 19.5184C16.4928 19.7076 15.519 19.592 14.5451 19.6235C13.8717 19.6445 13.8614 19.634 13.8614 20.3064C13.8614 22.1977 13.8614 24.0784 13.8614 25.9696C13.8614 26.1272 13.8096 26.3058 13.9753 26.5159C14.3483 26.1482 14.7212 25.791 15.0631 25.4127C15.3428 25.087 15.5604 25.129 15.8401 25.4127C16.5446 26.1587 17.2491 26.9257 18.0157 27.6086C18.6581 28.1865 18.9585 28.8169 18.8756 29.6995C18.8031 30.456 18.8756 30.4665 19.6215 30.4665C20.3364 30.4665 20.3467 30.4665 20.3467 29.7205C20.3467 29.4473 20.3467 29.1741 20.3467 28.901C20.3467 28.6068 20.4503 28.3861 20.6472 28.176C21.5796 27.2409 22.5016 26.3058 23.4133 25.3602C23.6827 25.0765 23.8691 25.129 24.1178 25.3812C24.7187 26.0116 25.3092 26.684 25.9722 27.2514C26.8217 27.9764 27.3605 28.7854 27.1429 29.9621C27.0704 30.3299 27.2879 30.477 27.6505 30.4665C28.4172 30.456 29.1942 30.4665 29.9608 30.4665C30.3234 30.4665 30.4685 30.6031 30.4581 30.9813C30.4478 32.3577 30.4478 33.7341 30.4581 35.1105C30.4581 35.4992 30.3338 35.6673 29.9401 35.6463C29.4221 35.6253 28.9041 35.6463 28.3861 35.6463C26.9564 35.6568 27.1533 35.4572 27.1429 36.9281C27.1429 37.5585 27.1429 38.1889 27.1429 38.8193C27.1429 38.9454 27.0807 39.0925 27.2258 39.1871C28.7176 37.485 30.5306 36.8126 32.7373 37.4535C33.0378 37.5375 33.1621 37.3694 33.3278 37.1908C34.1359 36.3187 35.1201 35.7409 36.2908 35.6043C36.8606 35.5412 36.9746 35.2996 36.9746 34.7953C36.9642 32.3262 36.9746 29.8676 36.9746 27.3985C36.9746 27.2409 37.0367 27.0623 36.8606 26.8942C36.7466 26.9887 36.6327 27.0833 36.5291 27.1884C33.8044 29.71 29.4221 29.4368 27.0186 26.5895C24.5322 23.6371 24.8741 19.4554 27.7956 16.8812C28.0235 16.6816 28.1893 16.5345 28.096 16.1668C27.3812 13.2144 28.4897 10.6507 31.1212 9.2113C31.4009 9.0537 31.4734 8.9066 31.3905 8.61241C31.2248 8.05555 31.1937 7.47768 31.1937 6.89981C31.1937 2.14025 36.0111 -1.14837 40.3623 0.637783C43.4806 1.9091 45.1486 5.18721 44.4027 8.57039C44.3405 8.84356 44.2887 9.04319 44.6099 9.19028C46.8269 10.2305 48.5674 13.0673 47.6661 16.2193C47.6039 16.4294 47.6143 16.5975 47.8111 16.7552C49.1994 17.8479 49.9971 19.2978 50.339 21.0314V23.2799C50.2975 23.4269 50.2561 23.574 50.2147 23.7211C48.8368 28.8694 43.0248 30.6241 39.088 27.0728C39.0155 27.0097 38.9637 26.8942 38.829 26.9572C38.8186 26.9992 38.7979 27.0518 38.7979 27.0938C38.7979 29.8781 38.7979 32.6729 38.7979 35.4572C38.7979 35.7619 38.9326 35.9195 39.1916 36.0351C39.7303 36.2872 40.238 36.6024 40.6213 37.0647C40.9321 37.443 41.2222 37.5165 41.6987 37.3904C44.9518 36.5709 48.1012 39.2081 47.9044 42.5808C47.894 42.8329 47.9458 43.001 48.153 43.1376C49.3341 43.9256 50.0178 45.0604 50.3493 46.4367V48.3805C49.8003 50.5449 48.4638 51.9108 46.3297 52.4571ZM32.9134 50.692C37.0574 50.692 41.1911 50.692 45.3351 50.692C46.9616 50.692 48.2255 49.6413 48.5674 48.0338C48.8782 46.5733 48.1012 45.0604 46.6819 44.3984C46.1086 44.1323 45.8945 43.684 46.0396 43.0536C46.4333 41.32 45.3973 39.5968 43.7086 39.1556C41.9784 38.7038 40.1965 39.7544 39.751 41.4776C39.5922 42.094 39.1951 42.3986 38.5596 42.3916C38.5596 42.3916 38.4975 42.3916 38.456 42.3916C37.8759 42.3916 37.7826 42.2971 37.8759 41.6877C38.0313 40.658 38.425 39.7334 39.1191 38.9559C39.5646 38.4621 39.5542 38.4411 39.0362 38.0418C37.13 36.5604 34.3638 37.6216 33.8873 40.0276C33.8044 40.4479 33.7526 40.7946 33.1724 40.7631C32.0432 40.7106 31.8671 40.8997 32.1364 39.5758C32.1986 39.2606 32.0846 39.1661 31.7946 39.0925C30.7068 38.8509 29.2978 39.4182 28.6451 40.3638C28.4793 40.6055 28.5001 40.7841 28.6658 41.0047C29.0699 41.5511 29.3496 42.171 29.505 42.8434C29.7951 44.0832 29.764 44.1148 28.5001 44.1253C28.0339 44.1253 27.8577 43.9571 27.7852 43.5054C27.5573 42.129 26.7596 41.2254 25.4439 40.8682C24.1489 40.5109 23.03 40.8892 22.1287 41.9083C21.7453 42.3496 21.7661 42.4232 22.2841 42.6438C23.9624 43.3688 25.0087 44.6296 25.4024 46.4367C25.62 47.4244 25.5578 47.4874 24.584 47.4874C24.4804 47.4874 24.3871 47.4874 24.2835 47.4874C23.8691 47.5294 23.7034 47.3508 23.6516 46.9201C23.4237 45.0499 21.5485 43.747 19.7562 44.1883C18.1297 44.5876 17.0315 46.111 17.2077 47.7396C17.3941 49.4417 18.772 50.7025 20.4918 50.7025C24.6358 50.7025 28.7694 50.7025 32.9134 50.7025V50.692ZM38.829 15.1476C39.6785 14.4647 40.4141 13.8763 41.1393 13.2669C41.4397 13.0147 41.6573 13.0147 41.8645 13.351C41.9266 13.4455 42.0095 13.5401 42.082 13.6346C42.8072 14.5382 42.6726 14.3386 41.9267 14.969C41.1082 15.6519 41.1082 15.6309 41.823 16.3874C42.8798 17.5116 42.9523 17.0598 41.7609 18.3102C41.5537 18.5308 41.3879 18.5308 41.1704 18.3102C40.7767 17.8899 40.3726 17.4906 39.9582 17.0809C39.8443 16.9653 39.72 16.7762 39.5438 16.9128C39.1916 17.1754 38.7876 17.3856 38.8083 17.9739C38.8497 19.1612 38.8083 20.359 38.8186 21.5462C38.8186 21.6828 38.7358 21.8825 38.9119 21.956C39.0362 22.0085 39.1502 21.8614 39.2641 21.7879C40.3208 21.0734 41.3879 20.359 42.4446 19.634C42.714 19.4449 42.9419 19.4239 43.232 19.5815C43.9883 19.9807 44.7653 20.3485 45.5216 20.7477C46.858 21.4517 46.7751 21.0524 46.0603 22.5549C45.9153 22.8596 45.7495 22.9016 45.4594 22.7545C44.7653 22.3868 44.0505 22.0506 43.346 21.6723C43.0559 21.5147 42.828 21.5357 42.5586 21.7248C41.5951 22.3973 40.6213 23.0697 39.6267 23.7001C39.233 23.9523 39.2123 24.1834 39.4299 24.5722C40.4555 26.4319 42.569 27.409 44.6928 26.9992C46.8787 26.579 48.5881 24.5091 48.5985 22.2502C48.6089 20.2119 47.7075 18.7094 45.9671 17.7113C45.1486 17.2385 45.1901 17.3435 45.6045 16.5555C46.0914 15.6519 46.2364 14.6853 46.0085 13.6872C45.5941 11.88 44.4441 10.8293 42.6622 10.4406C41.8127 10.2515 41.6469 10.3986 42.1649 9.41093C42.6104 8.54937 42.8073 7.64579 42.7762 6.65816C42.6933 3.81082 39.8754 1.49934 37.1196 2.03518C33.6801 2.69711 32.0121 6.14332 33.5765 9.33738C33.8735 9.94677 33.7043 10.3145 33.0688 10.4406C30.2302 11.0185 28.8419 13.9078 30.1473 16.524C30.5514 17.333 30.6239 17.2385 29.764 17.7218C28.1582 18.6254 27.2465 20.0333 27.1636 21.8825C27.0704 23.8997 27.951 25.4863 29.7018 26.4739C31.4527 27.4615 33.2242 27.346 34.8818 26.2007C36.6534 24.9714 37.1196 23.1538 36.9538 21.0944C36.9331 20.8423 36.7777 20.7057 36.6016 20.5586C35.8142 19.9072 35.0062 19.2558 34.2292 18.5938C33.9494 18.3522 33.7319 18.3102 33.4729 18.6254C33.245 18.8985 32.986 19.1402 32.727 19.3818C31.6495 20.4325 32.0328 20.464 30.8932 19.3503C30.8725 19.3293 30.8518 19.2978 30.8207 19.2768C30.6032 19.0877 30.6342 18.909 30.8207 18.7199C31.1315 18.4152 31.4423 18.1 31.7428 17.7848C32.6959 16.7867 32.6441 17.1334 31.9189 15.9882C31.1833 14.8324 31.1212 15.1581 32.24 14.3386C32.6752 14.0234 32.9134 14.118 33.1414 14.5487C33.908 16.0302 35.0683 17.1439 36.4048 18.0895C36.5498 18.1946 36.6638 18.4362 36.8606 18.3312C37.0367 18.2366 36.9642 17.9949 36.9642 17.8163C36.9642 15.0741 36.9228 12.3423 36.9953 9.60005C37.016 8.63343 36.7363 8.05555 35.9178 7.55123C34.6539 6.77373 34.7264 7.08893 35.576 5.73356C35.7832 5.39735 35.98 5.41836 36.2701 5.61799C36.8295 6.01724 37.389 6.43751 37.9898 6.77373C38.6218 7.12045 38.943 7.58275 38.8186 8.32873C38.7772 8.55988 38.8186 8.80153 38.8186 9.04319C38.8186 9.31637 38.8704 9.43194 39.1605 9.25332C39.9997 8.75951 39.9997 8.77001 40.528 9.57903C40.5902 9.67359 40.6524 9.77866 40.7249 9.87322C40.901 10.1149 40.8699 10.2935 40.6109 10.4616C40.1344 10.7768 39.6578 11.1025 39.1916 11.4177C39.0258 11.5333 38.8394 11.6489 38.8394 11.88C38.8394 12.9307 38.8394 13.9814 38.8394 15.1581L38.829 15.1476ZM8.7746 39.9015C8.7746 36.739 8.74352 33.5765 8.79532 30.4244C8.80568 29.5944 8.59848 28.985 7.97687 28.4282C7.11699 27.6612 7.18951 27.6507 6.32963 28.4387C5.75983 28.964 5.56299 29.5314 5.56299 30.3089C5.59407 36.7495 5.58371 43.1902 5.58371 49.6203C5.58371 49.8094 5.58371 49.9985 5.58371 50.1772C5.58371 50.5449 5.73911 50.7025 6.10171 50.692C6.69223 50.6815 7.27239 50.692 7.86291 50.692C8.4707 50.692 8.7746 50.3908 8.7746 49.7884C8.7746 46.4893 8.7746 43.2007 8.7746 39.9015ZM13.8717 39.912C13.8717 41.8873 13.8717 43.8521 13.8717 45.8274C13.8717 47.2563 13.8717 48.6852 13.8717 50.1141C13.8717 50.5134 13.9753 50.7235 14.4104 50.7025C14.9595 50.6815 15.519 50.692 16.068 50.7025C16.4824 50.7025 16.4721 50.5764 16.2752 50.2612C14.9492 48.1073 15.1253 45.8694 16.7725 43.9151C16.9486 43.705 17.0419 43.5054 17.0419 43.2322C17.0419 38.7143 17.0419 34.1859 17.0419 29.668C17.0419 29.3738 16.9694 29.1426 16.7518 28.943C16.4099 28.6173 16.0784 28.2811 15.7572 27.9343C15.55 27.7137 15.3739 27.7242 15.1667 27.9343C14.9077 28.218 14.6384 28.5122 14.3483 28.7644C13.9857 29.0796 13.8614 29.4368 13.8717 29.9201C13.8924 33.2508 13.8717 36.5814 13.8717 39.912ZM22.2012 34.2489C22.2012 35.7619 22.2012 37.2748 22.2012 38.7878C22.2012 39.4813 22.2012 39.4918 22.8228 39.2501C23.4444 39.0085 24.0763 38.9034 24.7394 38.9349C25.3403 38.9664 25.361 38.9349 25.3713 38.3255C25.3713 35.8669 25.3713 33.3979 25.3713 30.9393C25.3713 29.7905 24.9638 28.8134 24.1489 28.0079C24.1489 28.0079 24.1281 27.9869 24.1178 27.9764C23.9002 27.7032 23.693 27.6927 23.4547 27.9554C23.1957 28.239 22.9264 28.5227 22.6363 28.7854C22.3048 29.0796 22.1908 29.4263 22.2012 29.8676C22.2219 31.328 22.2012 32.7885 22.2012 34.2489ZM12.9704 9.38991C13.9546 9.44245 14.7212 9.08522 15.1667 8.17113C15.6226 7.23603 15.3946 6.39549 14.7627 5.62849C14.2861 5.04011 13.8199 4.43072 13.3537 3.84234C12.9911 3.38005 12.9704 3.38005 12.5871 3.85285C12.1105 4.45174 11.6547 5.05062 11.1781 5.639C10.5462 6.4165 10.3286 7.26755 10.7948 8.19214C11.2403 9.09572 12.0173 9.45295 12.9808 9.40042L12.9704 9.38991ZM15.4982 17.8373C15.778 17.8373 16.068 17.8373 16.3478 17.8373C17.995 17.8163 19.4869 16.7762 20.0877 15.2212C20.2846 14.7168 20.2328 14.6328 19.6837 14.6328C18.9792 14.6328 18.2747 14.6223 17.5806 14.6328C16.0991 14.6853 14.514 15.9461 14.0996 17.375C13.996 17.7323 14.0996 17.8373 14.4519 17.8268C14.8041 17.8163 15.1564 17.8268 15.5086 17.8268L15.4982 17.8373ZM10.1525 22.0401C10.7223 22.0401 11.116 22.0295 11.4993 22.0401C11.893 22.0506 11.9551 21.893 11.8204 21.5462C11.2714 20.1488 10.2872 19.2663 8.84712 18.93C7.93544 18.7199 7.01339 18.8565 6.10171 18.8355C5.77019 18.8355 5.69767 19.0036 5.81163 19.2978C5.96703 19.7496 6.19495 20.1593 6.49539 20.5271C7.50031 21.7564 8.8264 22.1766 10.1628 22.0401H10.1525ZM18.8756 39.0925C18.8756 40.0802 18.8756 41.0573 18.8756 42.0449C18.8756 42.3916 18.9999 42.4967 19.3315 42.4232C19.8287 42.3181 20.326 41.7402 20.3364 41.0783C20.3675 39.4182 20.3467 37.7477 20.3467 36.0876C20.3467 35.7934 20.2017 35.6568 19.9116 35.6673C19.7769 35.6673 19.6423 35.6778 19.5076 35.6673C19.031 35.6043 18.8445 35.8039 18.8549 36.2977C18.886 37.2328 18.8549 38.1679 18.8549 39.0925H18.8756ZM12.0898 38.1259C12.0898 37.569 12.0898 37.0017 12.0898 36.4448C12.0898 35.9265 11.8273 35.6673 11.3024 35.6673C11.2403 35.6673 11.1678 35.6673 11.1056 35.6673C10.6912 35.6253 10.5358 35.8039 10.5462 36.2242C10.5669 37.3484 10.5462 38.4621 10.5462 39.5863C10.5462 40.6475 10.5462 40.637 11.6132 40.6055C11.9551 40.595 12.1002 40.4689 12.0898 40.1222C12.0794 39.4603 12.0898 38.7983 12.0898 38.1364V38.1259ZM12.0898 48.2754C12.0898 47.7711 12.0898 47.2563 12.0898 46.7519C12.0898 45.7433 12.0898 45.7643 11.1056 45.7643C10.6912 45.7643 10.5358 45.9009 10.5462 46.3317C10.5669 47.4559 10.5462 48.5696 10.5462 49.6938C10.5462 50.755 10.5462 50.7445 11.6029 50.713C11.9448 50.7025 12.0898 50.5764 12.0794 50.2297C12.0691 49.5888 12.0794 48.9374 12.0794 48.2964L12.0898 48.2754ZM7.17915 6.15383C7.17915 6.15383 7.17915 6.16434 7.17915 6.17484C6.82691 6.17484 6.47467 6.17484 6.12243 6.17484C5.77019 6.17484 5.67695 6.33245 5.80127 6.65816C6.36071 8.1291 7.40707 9.00116 8.90928 9.33738C9.17864 9.40042 9.36512 9.35839 9.17864 9.00116C8.79532 8.2762 8.69172 7.48819 8.79532 6.67917C8.83676 6.35346 8.70208 6.23789 8.43272 6.21687C8.01832 6.18535 7.59355 6.17484 7.17915 6.15383ZM18.7202 6.17484C18.3783 6.19586 17.9328 6.12231 17.477 6.22738C17.2698 6.27991 17.073 6.33245 17.1248 6.61613C17.2905 7.46718 17.104 8.26569 16.7414 9.03268C16.6171 9.29535 16.7104 9.3689 16.9694 9.35839C18.2229 9.27434 19.8702 7.82441 20.1603 6.5741C20.2224 6.30093 20.1499 6.18535 19.8805 6.18535C19.5283 6.18535 19.1761 6.18535 18.7099 6.18535L18.7202 6.17484ZM2.95227 33.8497C3.48408 33.8497 3.74999 33.594 3.74999 33.0827C3.74999 32.5713 3.51171 32.3052 3.03515 32.2841C2.55859 32.2631 2.28577 32.5083 2.21671 33.0196C2.14764 33.5309 2.39283 33.8041 2.95227 33.8391V33.8497ZM12.0898 33.1142C12.0898 32.5678 11.8619 32.2911 11.406 32.2841C10.8397 32.2841 10.5565 32.5223 10.5565 32.9986C10.5565 33.566 10.7948 33.8497 11.2714 33.8497C11.8239 33.8497 12.1002 33.6045 12.1002 33.1142H12.0898ZM27.8888 33.8497C28.4206 33.8497 28.69 33.615 28.6969 33.1457C28.6969 32.5783 28.4621 32.2946 27.9924 32.2946C27.4399 32.2946 27.1636 32.5398 27.1636 33.0301C27.1636 33.5835 27.4088 33.8602 27.8992 33.8602L27.8888 33.8497ZM2.98335 42.3916C2.47225 42.3916 2.21671 42.6368 2.21671 43.1271C2.21671 43.6735 2.46535 43.9466 2.96263 43.9466C3.49444 43.9466 3.76035 43.691 3.76035 43.1796C3.76035 42.6473 3.5048 42.3811 2.99371 42.3811L2.98335 42.3916ZM12.0898 43.1691C12.0898 42.6508 11.8446 42.3916 11.3542 42.3916C10.8155 42.3916 10.5462 42.6438 10.5462 43.1481C10.5462 43.6805 10.7983 43.9501 11.3024 43.9571C11.8204 43.9571 12.0794 43.698 12.0794 43.1796L12.0898 43.1691ZM20.3571 33.0616C20.3571 32.5503 20.105 32.2946 19.6008 32.2946C18.886 32.2946 18.8653 32.3052 18.8756 33.0827C18.8756 33.8391 18.8756 33.8497 19.6319 33.8497C20.3571 33.8497 20.3571 33.8496 20.3571 33.0616Z" fill="#4A3121"/>
  </g>
  <defs>
    <clipPath id="clip0_2624_47735">
      <rect width="49.9353" height="52.3132" fill="white" transform="translate(0.421875 0.144043)"/>
    </clipPath>
  </defs>
</svg>