<svg xmlns="http://www.w3.org/2000/svg" width="58" height="46" viewBox="0 0 58 46" fill="none">
  <path d="M57.8814 44.2967C57.4311 45.3689 56.598 45.6883 55.4722 45.6883C38.0453 45.6883 20.6408 45.6883 3.21384 45.6883C2.89863 45.6883 2.58341 45.6883 2.26819 45.6427C1.48015 45.5058 0.849719 44.753 0.827204 43.9317C0.827204 41.9469 0.782173 39.9393 0.849719 37.9545C0.849719 37.4754 1.14242 36.8595 1.50267 36.5401C5.24024 33.004 9.02283 29.5363 12.7829 26.0458C13.2107 25.658 13.6835 25.4755 14.2464 25.4983C14.8093 25.4983 15.3497 25.4983 15.9576 25.4983V19.658C14.9444 19.8861 14.2239 19.4755 13.6385 18.6998C13.3908 18.3576 13.0756 18.0382 12.8054 17.7188C11.9273 16.6922 11.9949 15.5972 12.9856 14.6846C16.0251 11.9242 19.0647 9.16373 22.1043 6.40328C24.0181 4.66945 25.9319 2.93561 27.8232 1.20178C28.8364 0.289234 29.7821 0.266421 30.7953 1.20178C32.3489 2.61622 33.9024 4.00785 35.4335 5.42229C35.5686 5.53636 35.7037 5.65043 35.9288 5.83294C35.9288 5.53636 35.9738 5.33105 35.9738 5.12572C36.0639 4.16755 36.7394 3.4147 37.685 3.36907C38.7433 3.32345 39.8015 3.32345 40.8597 3.36907C41.9404 3.4147 42.6159 4.25881 42.6384 5.49074C42.6384 7.47552 42.6384 9.43749 42.6384 11.4223C42.6384 11.8101 42.751 12.0839 43.0437 12.3348C43.9218 13.1105 44.7999 13.909 45.6555 14.7074C46.6462 15.62 46.6912 16.6922 45.8131 17.7416C45.4979 18.1295 45.1602 18.5173 44.8449 18.9051C44.2821 19.5895 43.6066 19.8861 42.6835 19.658V25.4983C43.2914 25.4983 43.8993 25.4983 44.5072 25.4983C45.1151 25.4755 45.633 25.6808 46.0608 26.1142C49.7533 29.5819 53.4459 33.0496 57.1159 36.5401C57.4086 36.8138 57.5887 37.2473 57.8138 37.5895V44.3651L57.8814 44.2967ZM29.3993 7.72647C29.3993 7.72647 29.2868 7.7721 29.2417 7.79491C25.5717 11.1257 21.9017 14.4337 18.2542 17.7645C18.0741 17.9242 17.984 18.2436 17.984 18.4945C17.984 22.6466 17.984 26.7986 17.984 30.9735C17.984 31.8861 18.2767 32.1827 19.1998 32.1827C20.0104 32.1827 20.8435 32.1827 21.654 32.1827C22.6222 32.1827 23.5678 32.1827 24.6035 32.1827C24.6035 31.9317 24.6035 31.7264 24.6035 31.5211C24.6035 29.2169 24.6035 26.8899 24.6035 24.5857C24.6035 22.8291 25.8194 21.62 27.5531 21.5971C28.7014 21.5971 29.8496 21.6428 30.9979 21.5971C32.8892 21.4831 34.1951 22.9888 34.1501 24.7911C34.1051 27.0496 34.1501 29.3082 34.1501 31.5667C34.1501 31.772 34.1501 31.9545 34.1726 32.2055C36.0864 32.2055 37.9327 32.2055 39.779 32.2055C40.4319 32.2055 40.7471 31.8176 40.7471 31.1332C40.7471 26.8899 40.7471 22.6238 40.7471 18.3804C40.7471 18.1979 40.6346 17.947 40.4995 17.8101C36.8069 14.4565 33.1144 11.1029 29.4218 7.74928L29.3993 7.72647ZM2.80856 37.9317H55.855C55.855 37.9317 55.7875 37.8176 55.7649 37.7948C52.1399 34.3956 48.5375 30.9735 44.9125 27.5743C44.8224 27.4831 44.7099 27.3918 44.5973 27.3918C43.9894 27.3918 43.3814 27.3918 42.7285 27.3918C42.7285 27.6656 42.7285 27.8709 42.7285 28.0534C42.7285 29.08 42.7285 30.0838 42.7285 31.1104C42.6835 32.8671 41.5127 34.1446 39.869 34.1446C32.8892 34.1446 25.9094 34.1446 18.9296 34.1446C17.4886 34.1446 16.2953 33.0952 16.1602 31.6579C16.0477 30.4945 16.1152 29.331 16.0927 28.1675C16.0927 27.9393 16.0927 27.6884 16.0927 27.3918C15.6874 27.3918 15.3497 27.4146 15.0345 27.3918C14.4716 27.3234 14.0663 27.5287 13.661 27.9165C11.7022 29.7644 9.72081 31.5895 7.76197 33.4146C6.16337 34.8975 4.56477 36.3804 2.87611 37.9545L2.80856 37.9317ZM2.76353 43.7035H55.9451V39.9393H2.76353V43.7035ZM15.4172 17.7188C15.5748 17.582 15.6649 17.5135 15.755 17.4223C19.9879 13.5896 24.2208 9.75689 28.4537 5.90139C29.1517 5.28542 29.5569 5.2626 30.1874 5.83294C33.4746 8.82152 36.7619 11.8101 40.0717 14.7987C41.1524 15.7797 42.2332 16.7378 43.3139 17.7416C43.7417 17.2397 44.147 16.7607 44.5522 16.2588C39.4637 11.6276 34.4203 7.04207 29.3543 2.43372C24.2658 7.04207 19.2223 11.6276 14.1789 16.2131C14.6067 16.7379 14.9894 17.2169 15.4172 17.7188ZM32.1237 32.1598C32.1237 32.1598 32.1687 32.0002 32.1687 31.9545C32.1687 29.4678 32.1687 26.9812 32.1687 24.4945C32.1687 23.8557 31.786 23.5363 31.1105 23.5135C30.0072 23.5135 28.8815 23.5135 27.7782 23.5135C26.8101 23.5135 26.5174 23.8101 26.5174 24.7911C26.5174 27.0496 26.5174 29.3082 26.5174 31.5667C26.5174 31.7492 26.5174 31.9317 26.5174 32.137H32.1237V32.1598ZM37.9552 5.2626C37.9552 5.39948 37.9552 5.51355 37.9327 5.62762C37.7075 6.97362 38.0678 8.04586 39.2611 8.82153C39.779 9.14092 40.1842 9.64282 40.7021 10.0991V5.2626H37.9552Z" fill="#4A3121"/>
</svg>