<svg xmlns="http://www.w3.org/2000/svg" width="55" height="47" viewBox="0 0 55 47" fill="none">
  <g clipPath="url(#clip0_2624_47746)">
    <path d="M54.731 19.5043C54.4885 19.8617 54.1463 19.9904 53.7184 19.9761C52.9911 19.9618 52.2638 19.9761 51.5365 19.9761C51.2228 19.9761 51.1229 20.0762 51.2228 20.3908C51.3796 20.8626 51.508 21.3487 51.6221 21.8349C51.7647 22.4211 51.5223 22.8929 51.0231 23.0216C50.5668 23.1503 50.1247 22.8643 49.9678 22.2924C49.4116 20.2478 48.7699 18.2175 47.8714 16.3015C47.7288 16.0013 47.5719 15.701 47.4151 15.3865C47.2582 15.0576 47.1299 15.1005 46.973 15.3865C46.2314 16.7877 45.6467 18.2604 45.1618 19.776C43.9639 23.5363 43.2794 27.4111 42.9086 31.3431C42.7517 32.973 42.6234 34.603 42.5948 36.2473C42.5948 36.6619 42.7232 36.8049 43.1368 36.8049C45.8606 36.7906 48.5845 36.8049 51.3083 36.8049C51.6934 36.8049 51.8503 36.6905 51.836 36.2902C51.7362 34.1741 51.6221 32.058 51.3654 29.9561C51.2085 28.6836 50.9946 27.4254 50.7949 26.1529C50.7094 25.5952 50.9946 25.1377 51.4652 25.0519C51.9501 24.9661 52.3922 25.2664 52.492 25.824C52.7772 27.3825 52.9911 28.9553 53.1623 30.5281C53.3762 32.4297 53.4332 34.3313 53.5616 36.233C53.6614 37.7486 52.9341 38.5636 51.4367 38.5779C51.0089 38.5779 50.581 38.5921 50.1532 38.5779C49.7539 38.5493 49.6255 38.7351 49.6398 39.1212C49.6541 40.1363 49.6398 41.1515 49.6398 42.1667C49.6398 42.9959 49.3261 43.2962 48.5132 43.3105C47.629 43.3105 46.7305 43.3105 45.8464 43.3105C45.0477 43.3105 44.7768 43.0245 44.7625 42.2095C44.7625 41.2087 44.734 40.2078 44.7625 39.207C44.7768 38.6922 44.5914 38.5493 44.1208 38.5779C43.6359 38.6064 43.1653 38.5921 42.6804 38.5779C41.511 38.535 40.8122 37.8058 40.8122 36.619C40.8122 35.4037 40.8835 34.2027 41.0119 32.9873C41.0832 32.2009 41.0547 32.158 40.2846 32.158C39.9423 32.158 39.6143 32.158 39.272 32.158C38.1882 32.1151 37.5607 31.4145 37.6463 30.3422C37.7604 28.798 37.7746 27.2395 38.0028 25.7096C38.0598 25.3808 37.8744 25.3093 37.6035 25.3093C37.1471 25.3093 36.6765 25.3522 36.2202 25.2521C35.5499 25.1091 35.1649 24.6802 35.1506 23.9939C35.1363 22.8357 35.2504 21.6776 35.4073 20.5337C35.4786 20.0619 35.3217 19.9761 34.9224 19.9904C33.4393 19.9904 31.9704 20.0047 30.4872 19.9904C30.0309 19.9904 29.9881 20.1048 30.1592 20.5052C31.5853 23.6507 32.9972 26.8106 34.4233 29.9561C36.7336 35.1034 39.0581 40.265 41.3684 45.4123C41.511 45.7269 41.6251 46.0414 41.4682 46.3846C41.3114 46.6991 41.0547 46.8707 40.7124 46.8707C40.256 46.8707 39.9993 46.599 39.8282 46.213C39.1579 44.7403 38.5019 43.2533 37.8317 41.7806C34.6657 34.746 31.4998 27.7114 28.3338 20.6624C28.0343 20.0047 27.5922 19.8046 26.8935 19.9904C26.594 20.0619 26.5512 20.3336 26.4514 20.548C25.0823 23.5649 23.7275 26.5961 22.3727 29.613C19.8913 35.1177 17.4099 40.6368 14.9427 46.1415C14.7288 46.6133 14.4436 46.9279 13.8874 46.8421C13.4881 46.7706 13.2742 46.499 13.2029 46.1129C13.1601 45.8555 13.2742 45.6268 13.374 45.398C15.1852 41.366 16.9963 37.3339 18.8075 33.3019C20.7184 29.0411 22.6437 24.7803 24.5547 20.5195C24.7971 19.9618 24.7971 19.9618 24.2124 19.9618C22.772 19.9618 21.3317 19.9618 19.8913 19.9618C19.4492 19.9618 19.2638 20.019 19.3494 20.5623C19.5205 21.6347 19.6061 22.7213 19.6061 23.808C19.6061 24.7231 19.1925 25.1949 18.2798 25.2807C17.8948 25.3093 17.4954 25.295 17.1104 25.295C16.8394 25.295 16.7111 25.4094 16.7681 25.6953C16.9963 27.2109 17.0106 28.7408 17.1247 30.2707C17.2102 31.4002 16.5827 32.1151 15.4561 32.158C15.1139 32.158 14.7859 32.158 14.4436 32.158C13.7448 32.158 13.702 32.2009 13.7591 32.9301C13.8731 34.1169 13.9445 35.3036 13.9587 36.5046C13.9587 37.8344 13.2599 38.5636 11.9336 38.5779C11.4773 38.5779 11.0067 38.6064 10.5503 38.5779C10.1225 38.5493 9.99415 38.7351 10.0084 39.1498C10.0227 40.1792 10.0084 41.223 10.0084 42.2524C10.0084 43.0245 9.72319 43.3105 8.93883 43.3105C8.01186 43.3105 7.0849 43.3105 6.15793 43.3105C5.4734 43.3105 5.1454 42.9816 5.1454 42.281C5.1454 41.2802 5.1454 40.2793 5.1454 39.2785C5.1454 38.8114 4.90772 38.5779 4.43235 38.5779C4.01878 38.5779 3.61947 38.5779 3.2059 38.5779C1.92241 38.5493 1.18083 37.7915 1.22362 36.5046C1.30918 34.4171 1.40901 32.3439 1.65145 30.2707C2.00797 27.2109 2.52137 24.1654 3.33425 21.1915C3.66225 19.9761 3.66225 19.9761 2.37876 19.9761C1.87962 19.9761 1.38049 19.9761 0.881353 19.9761C0.367956 19.9618 0.0542134 19.6759 0.0256913 19.204C-0.00283072 18.7179 0.239607 18.389 0.738743 18.3033C1.69423 18.146 2.64972 18.2318 3.61947 18.2461C4.11861 18.2461 4.34678 18.0888 4.50365 17.617C4.8887 16.4874 5.41636 15.4151 5.97254 14.357C6.3148 13.7136 6.79968 13.299 7.55551 13.2847C8.33987 13.2704 8.86753 13.6707 9.20979 14.3427C9.50927 14.9146 9.78023 15.4865 10.0655 16.0728C10.1225 16.2014 10.1368 16.4016 10.2936 16.4159C10.4933 16.4159 10.4933 16.2014 10.5646 16.0585C10.7785 15.6724 10.9354 15.2435 11.1778 14.8717C11.791 13.8566 13.1031 13.8566 13.7305 14.8574C13.973 15.2435 14.1584 15.6724 14.4151 16.13C14.7003 15.5151 14.9427 14.9432 15.1994 14.3856C15.4419 13.8709 15.7984 13.4991 16.4116 13.4991C17.0248 13.4991 17.3814 13.8566 17.6381 14.3713C18.1657 15.4294 18.5508 16.5446 18.8217 17.6884C18.9215 18.0888 19.0927 18.2461 19.5063 18.2461C24.7543 18.2461 30.0024 18.2461 35.2504 18.2461C35.664 18.2461 35.8351 18.0888 35.9349 17.6884C36.2059 16.516 36.6052 15.4008 37.1471 14.3284C37.4038 13.828 37.7604 13.5134 38.3451 13.4991C38.944 13.4991 39.2863 13.8423 39.543 14.3284C39.8425 14.9003 40.0849 15.4865 40.3273 16.1872C40.5555 15.7439 40.7552 15.3579 40.9548 14.9718C41.2401 14.4285 41.6821 14.1139 42.3239 14.1139C42.9656 14.1139 43.3935 14.4571 43.6787 15.0004C43.8783 15.3865 44.0495 15.7725 44.2491 16.1443C44.3062 16.2443 44.3204 16.4302 44.4773 16.3873C44.5486 16.373 44.6057 16.23 44.6484 16.1443C44.9337 15.5723 45.2046 14.9861 45.4898 14.4142C45.8464 13.6993 46.374 13.2561 47.2012 13.2704C48.014 13.2847 48.4847 13.7708 48.8412 14.4428C49.3831 15.4865 49.8965 16.5446 50.2673 17.6598C50.4099 18.0888 50.6523 18.2318 51.0944 18.2175C51.893 18.1889 52.6917 18.2175 53.4903 18.2175C53.9609 18.2175 54.4172 18.289 54.7025 18.7465V19.49L54.731 19.5043ZM7.55551 36.8049C8.89605 36.8049 10.2223 36.7906 11.5629 36.8049C12.062 36.8049 12.2474 36.6762 12.2331 36.1472C12.1618 34.1884 12.0192 32.2438 11.8053 30.285C11.406 26.6962 10.75 23.1646 9.63762 19.7331C9.16701 18.2604 8.59657 16.8163 7.86925 15.4437C7.81221 15.3293 7.78369 15.1291 7.61256 15.1291C7.45568 15.1291 7.42716 15.3293 7.35586 15.4437C7.21325 15.7153 7.0849 15.987 6.95655 16.2586C5.51619 19.3899 4.66052 22.6927 4.0473 26.0671C3.43408 29.4128 3.14886 32.8015 2.99198 36.2044C2.97772 36.6333 3.10607 36.8049 3.56243 36.7906C4.90296 36.762 6.22924 36.7906 7.56977 36.7906L7.55551 36.8049ZM40.2846 30.3851C41.3827 30.3708 41.2115 30.5138 41.3399 29.5272C41.7534 26.1386 42.3809 22.8071 43.4077 19.5615C43.479 19.3613 43.5503 19.1468 43.479 18.9324C43.2223 18.0888 42.9086 17.2881 42.5378 16.4874C42.4095 16.2014 42.2811 16.2443 42.1528 16.5017C41.8248 17.1594 41.5681 17.8457 41.3256 18.532C40.0706 22.2066 39.6286 26.0242 39.4004 29.8704C39.3719 30.2707 39.5145 30.4423 39.9138 30.3851C40.0421 30.3851 40.1562 30.3851 40.2846 30.3851ZM14.4578 30.3851C14.5862 30.3851 14.7145 30.3708 14.8286 30.3851C15.3706 30.4709 15.4704 30.1706 15.3991 29.7274C15.3563 29.4986 15.342 29.2698 15.3278 29.0411C15.2279 26.5246 14.8999 24.0368 14.3438 21.5918C13.9587 19.8903 13.4596 18.2175 12.718 16.6304C12.661 16.516 12.6324 16.3158 12.4756 16.3158C12.3044 16.3158 12.2759 16.5017 12.2331 16.6304C11.9764 17.2452 11.7483 17.86 11.4916 18.4605C11.3062 18.8895 11.3204 19.3041 11.463 19.7474C11.9907 21.3773 12.39 23.0359 12.718 24.7088C13.0603 26.4245 13.317 28.1403 13.5166 29.8704C13.5737 30.2993 13.7591 30.4137 14.1298 30.3708C14.2297 30.3708 14.3438 30.3708 14.4436 30.3708L14.4578 30.3851ZM38.4164 15.844C38.288 16.0871 38.231 16.1586 38.2024 16.2586C37.4038 18.4319 37.0616 20.691 36.9332 22.993C36.919 23.279 36.9332 23.5935 37.3183 23.5077C37.6891 23.4362 38.2452 23.8223 38.3736 23.0788C38.559 22.0636 38.7016 21.0342 39.0439 20.0619C39.5715 18.5463 38.7872 17.3167 38.4164 15.8297V15.844ZM16.4259 16.0013C15.884 17.4311 15.1994 18.818 15.8269 20.4051C16.1121 21.1343 16.1834 21.9636 16.3403 22.7499C16.4972 23.5363 16.4972 23.5077 17.2815 23.5363C17.7807 23.5506 17.8948 23.3648 17.8662 22.9072C17.7521 21.5346 17.6238 20.1763 17.3243 18.8466C17.1104 17.8743 16.868 16.9164 16.4116 16.0013H16.4259ZM6.92803 40.0505C6.92803 40.2221 6.92803 40.408 6.92803 40.5796C6.92803 41.5804 6.98507 41.6376 7.96908 41.5375C8.22578 41.5089 8.35413 41.4089 8.35413 41.1372C8.35413 40.408 8.35413 39.6788 8.35413 38.9639C8.35413 38.778 8.31135 38.635 8.08317 38.5779C7.21325 38.3777 6.92803 38.5779 6.92803 39.4643C6.92803 39.6645 6.92803 39.8504 6.92803 40.0505ZM46.4453 40.0362C46.4453 40.3937 46.4453 40.7512 46.4453 41.1086C46.4453 41.3946 46.5594 41.5375 46.8589 41.5375C47.03 41.5375 47.2154 41.5375 47.3866 41.5375C47.7573 41.5661 47.8857 41.3803 47.8714 41.0228C47.8572 40.4509 47.8714 39.879 47.8714 39.307C47.8714 38.8114 47.629 38.5636 47.1441 38.5636C46.6592 38.5636 46.4263 38.8019 46.4453 39.2785C46.4453 39.5215 46.4453 39.7789 46.4453 40.0219V40.0362Z" fill="#4A3121"/>
    <path d="M44.4322 8.1948C42.4927 8.1948 40.5532 8.1948 38.6137 8.1948C37.9007 8.1948 37.5156 7.88025 37.5156 7.32262C37.5156 6.8079 37.9292 6.39325 38.5852 6.46474C39.5692 6.56483 40.211 6.27887 40.7101 5.3638C41.1807 4.50591 42.0792 4.03408 43.0346 3.77672C43.3199 3.69093 43.4767 3.56225 43.6051 3.29058C44.5748 1.26026 46.6284 0.187913 48.8246 0.559661C50.8782 0.902814 52.4184 2.57568 52.7464 4.73468C52.8177 5.24941 52.7892 5.73554 52.6894 6.22168C52.4612 7.35122 51.4486 8.1948 50.2792 8.1948C48.3255 8.1948 46.3717 8.1948 44.418 8.1948H44.4322ZM42.1362 6.35036C42.236 6.39325 42.2645 6.42185 42.2931 6.42185C44.9456 6.42185 47.5982 6.42185 50.2507 6.42185C50.7641 6.42185 51.0208 6.10729 51.0636 5.54967C51.1919 4.01978 50.1366 2.60428 48.6392 2.28972C47.0848 1.96087 45.5303 2.80445 45.0882 4.30574C44.8743 5.02064 44.4893 5.3352 43.7905 5.40669C43.1345 5.47818 42.5783 5.79274 42.1362 6.35036Z" fill="#4A3121"/>
    <path d="M12.7416 11.0686C10.4883 11.0686 8.22084 11.0686 5.9676 11.0686C5.81073 11.0686 5.6396 11.0686 5.48273 11.0686C5.01211 11.0114 4.72689 10.7397 4.68411 10.2822C4.64133 9.81035 4.91229 9.51009 5.35438 9.38141C5.78221 9.25273 6.23856 9.32422 6.68065 9.32422C7.05144 9.32422 7.26536 9.22413 7.3224 8.80949C7.3937 8.26616 7.5791 7.73714 7.8358 7.23671C8.09249 6.72198 8.52033 6.5218 8.96242 6.70768C9.44729 6.90785 9.60416 7.33679 9.41877 7.90871C9.31894 8.19467 9.20485 8.48063 9.10503 8.76659C8.97668 9.15264 9.06224 9.33851 9.53286 9.33851C11.5009 9.30992 13.4832 9.33851 15.4512 9.33851C16.6919 9.33851 17.9469 9.33851 19.1876 9.33851C19.3159 9.33851 19.5013 9.41 19.5726 9.23843C19.6297 9.09545 19.4871 8.98106 19.3872 8.88098C18.9879 8.42344 18.4888 8.16608 17.8898 8.22327C17.2909 8.28046 16.9343 8.03739 16.6491 7.52267C15.7792 5.99278 13.9395 4.89183 11.7576 5.66392C11.1871 5.8641 10.7165 5.66392 10.5597 5.22068C10.3743 4.72025 10.6024 4.29131 11.1729 4.04825C13.3976 3.11888 16.0216 3.86237 17.6474 5.93559C17.9326 6.30733 18.2463 6.47891 18.6884 6.5647C19.9291 6.80777 20.8133 7.53696 21.2982 8.6951C21.8259 9.93903 21.07 11.0972 19.7295 11.0972C17.4049 11.0972 15.0661 11.0972 12.7416 11.0972V11.0686Z" fill="#4A3121"/>
    <path d="M26.522 44.0829C26.522 43.5253 26.522 42.982 26.522 42.4243C26.5362 41.8095 26.8785 41.4092 27.3919 41.4092C27.9053 41.4092 28.2618 41.7952 28.2761 42.41C28.2761 43.5539 28.2761 44.6977 28.2761 45.8273C28.2761 46.4564 27.9195 46.8281 27.4061 46.8281C26.8928 46.8281 26.5362 46.4564 26.522 45.8273C26.5077 45.241 26.522 44.6548 26.522 44.0686V44.0829Z" fill="#4A3121"/>
    <path d="M28.2804 36.09C28.2804 36.5761 28.2804 37.048 28.2804 37.5341C28.2662 38.1489 27.8954 38.5493 27.3962 38.5493C26.8971 38.5493 26.5406 38.1346 26.5263 37.5341C26.5121 36.5618 26.5121 35.5753 26.5263 34.603C26.5263 34.0168 26.8828 33.645 27.382 33.6307C27.8811 33.6164 28.2662 34.0168 28.2804 34.6173C28.2947 35.1177 28.2804 35.6182 28.2804 36.1186V36.09Z" fill="#4A3121"/>
    <path d="M26.5191 29.1552C26.5191 28.7835 26.4906 28.4117 26.5191 28.04C26.5619 27.4966 26.9184 27.1678 27.4033 27.1821C27.8739 27.1821 28.2304 27.5109 28.2447 28.04C28.2732 28.8264 28.2732 29.5985 28.2447 30.3848C28.2304 30.9139 27.8026 31.2856 27.3605 31.2713C26.9184 31.2713 26.5476 30.871 26.5049 30.3419C26.4763 29.9559 26.5049 29.5556 26.5049 29.1695L26.5191 29.1552Z" fill="#4A3121"/>
    <path d="M26.5283 23.3937C26.5283 23.1793 26.514 22.9648 26.5283 22.7503C26.5853 22.2356 26.9276 21.9067 27.384 21.9067C27.8546 21.9067 28.2111 22.2213 28.2539 22.736C28.2824 23.1793 28.2824 23.6225 28.2539 24.0657C28.2111 24.5662 27.8261 24.9236 27.3982 24.9379C26.9704 24.9379 26.5853 24.5805 26.5283 24.08C26.4998 23.8513 26.5283 23.6225 26.5283 23.3794V23.3937Z" fill="#4A3121"/>
  </g>
  <defs>
    <clipPath id="clip0_2624_47746">
      <rect width="54.691" height="46.3685" fill="white" transform="translate(0.0390625 0.473633)"/>
    </clipPath>
  </defs>
</svg>